<?xml version="1.0" encoding="UTF-8" standalone="no"?>
<!-- Created with Inkscape (http://www.inkscape.org/) -->

<svg
   xmlns:dc="http://purl.org/dc/elements/1.1/"
   xmlns:cc="http://creativecommons.org/ns#"
   xmlns:rdf="http://www.w3.org/1999/02/22-rdf-syntax-ns#"
   xmlns:svg="http://www.w3.org/2000/svg"
   xmlns="http://www.w3.org/2000/svg"
   xmlns:sodipodi="http://sodipodi.sourceforge.net/DTD/sodipodi-0.dtd"
   xmlns:inkscape="http://www.inkscape.org/namespaces/inkscape"
   width="1240mm"
   height="640mm"
   viewBox="0 0 4393.7008 2267.7165"
   id="svg2"
   version="1.1"
   inkscape:version="0.91 r13725"
   sodipodi:docname="drawing.svg">
  <defs
     id="defs4">
    <inkscape:path-effect
       effect="skeletal"
       id="path-effect4293"
       is_visible="true"
       pattern="m 0,-1210.3543 c 0,-2.76 2.24,-5 5,-5 2.76,0 5,2.24 5,5 0,2.76 -2.24,5 -5,5 -2.76,0 -5,-2.24 -5,-5 z"
       copytype="single_stretched"
       prop_scale="1"
       scale_y_rel="false"
       spacing="0"
       normal_offset="0"
       tang_offset="0"
       prop_units="false"
       vertical_pattern="false"
       fuse_tolerance="0" />
    <inkscape:path-effect
       effect="skeletal"
       id="path-effect4289"
       is_visible="true"
       pattern="m 0,-1210.3543 c 0,-2.76 2.24,-5 5,-5 2.76,0 5,2.24 5,5 0,2.76 -2.24,5 -5,5 -2.76,0 -5,-2.24 -5,-5 z"
       copytype="single_stretched"
       prop_scale="1"
       scale_y_rel="false"
       spacing="0"
       normal_offset="0"
       tang_offset="0"
       prop_units="false"
       vertical_pattern="false"
       fuse_tolerance="0" />
    <inkscape:path-effect
       effect="skeletal"
       id="path-effect4285"
       is_visible="true"
       pattern="m 0,-1210.3543 c 0,-2.76 2.24,-5 5,-5 2.76,0 5,2.24 5,5 0,2.76 -2.24,5 -5,5 -2.76,0 -5,-2.24 -5,-5 z"
       copytype="single_stretched"
       prop_scale="1"
       scale_y_rel="false"
       spacing="0"
       normal_offset="0"
       tang_offset="0"
       prop_units="false"
       vertical_pattern="false"
       fuse_tolerance="0" />
    <inkscape:path-effect
       effect="skeletal"
       id="path-effect4277"
       is_visible="true"
       pattern="m 0,-1210.3543 c 0,-2.76 2.24,-5 5,-5 2.76,0 5,2.24 5,5 0,2.76 -2.24,5 -5,5 -2.76,0 -5,-2.24 -5,-5 z"
       copytype="single_stretched"
       prop_scale="1"
       scale_y_rel="false"
       spacing="0"
       normal_offset="0"
       tang_offset="0"
       prop_units="false"
       vertical_pattern="false"
       fuse_tolerance="0" />
    <inkscape:path-effect
       effect="skeletal"
       id="path-effect4261"
       is_visible="true"
       pattern="m 0,-1210.3543 c 0,-2.76 2.24,-5 5,-5 2.76,0 5,2.24 5,5 0,2.76 -2.24,5 -5,5 -2.76,0 -5,-2.24 -5,-5 z"
       copytype="single_stretched"
       prop_scale="1"
       scale_y_rel="false"
       spacing="0"
       normal_offset="0"
       tang_offset="0"
       prop_units="false"
       vertical_pattern="false"
       fuse_tolerance="0" />
    <inkscape:path-effect
       effect="skeletal"
       id="path-effect4257"
       is_visible="true"
       pattern="m 0,-1210.3543 c 0,-2.76 2.24,-5 5,-5 2.76,0 5,2.24 5,5 0,2.76 -2.24,5 -5,5 -2.76,0 -5,-2.24 -5,-5 z"
       copytype="single_stretched"
       prop_scale="1"
       scale_y_rel="false"
       spacing="0"
       normal_offset="0"
       tang_offset="0"
       prop_units="false"
       vertical_pattern="false"
       fuse_tolerance="0" />
    <inkscape:path-effect
       effect="skeletal"
       id="path-effect4253"
       is_visible="true"
       pattern="m 0,-1210.3543 c 0,-2.76 2.24,-5 5,-5 2.76,0 5,2.24 5,5 0,2.76 -2.24,5 -5,5 -2.76,0 -5,-2.24 -5,-5 z"
       copytype="single_stretched"
       prop_scale="1"
       scale_y_rel="false"
       spacing="0"
       normal_offset="0"
       tang_offset="0"
       prop_units="false"
       vertical_pattern="false"
       fuse_tolerance="0" />
    <inkscape:path-effect
       effect="skeletal"
       id="path-effect4249"
       is_visible="true"
       pattern="m 0,-1210.3543 c 0,-2.76 2.24,-5 5,-5 2.76,0 5,2.24 5,5 0,2.76 -2.24,5 -5,5 -2.76,0 -5,-2.24 -5,-5 z"
       copytype="single_stretched"
       prop_scale="1"
       scale_y_rel="false"
       spacing="0"
       normal_offset="0"
       tang_offset="0"
       prop_units="false"
       vertical_pattern="false"
       fuse_tolerance="0" />
    <inkscape:path-effect
       effect="skeletal"
       id="path-effect4245"
       is_visible="true"
       pattern="m 0,-1210.3543 c 0,-2.76 2.24,-5 5,-5 2.76,0 5,2.24 5,5 0,2.76 -2.24,5 -5,5 -2.76,0 -5,-2.24 -5,-5 z"
       copytype="single_stretched"
       prop_scale="1"
       scale_y_rel="false"
       spacing="0"
       normal_offset="0"
       tang_offset="0"
       prop_units="false"
       vertical_pattern="false"
       fuse_tolerance="0" />
    <inkscape:path-effect
       effect="skeletal"
       id="path-effect4241"
       is_visible="true"
       pattern="m 0,-1210.3543 c 0,-2.76 2.24,-5 5,-5 2.76,0 5,2.24 5,5 0,2.76 -2.24,5 -5,5 -2.76,0 -5,-2.24 -5,-5 z"
       copytype="single_stretched"
       prop_scale="1"
       scale_y_rel="false"
       spacing="0"
       normal_offset="0"
       tang_offset="0"
       prop_units="false"
       vertical_pattern="false"
       fuse_tolerance="0" />
    <inkscape:path-effect
       effect="skeletal"
       id="path-effect4237"
       is_visible="true"
       pattern="m 0,-1210.3543 c 0,-2.76 2.24,-5 5,-5 2.76,0 5,2.24 5,5 0,2.76 -2.24,5 -5,5 -2.76,0 -5,-2.24 -5,-5 z"
       copytype="single_stretched"
       prop_scale="1"
       scale_y_rel="false"
       spacing="0"
       normal_offset="0"
       tang_offset="0"
       prop_units="false"
       vertical_pattern="false"
       fuse_tolerance="0" />
    <inkscape:path-effect
       effect="skeletal"
       id="path-effect4233"
       is_visible="true"
       pattern="m 0,-1210.3543 c 0,-2.76 2.24,-5 5,-5 2.76,0 5,2.24 5,5 0,2.76 -2.24,5 -5,5 -2.76,0 -5,-2.24 -5,-5 z"
       copytype="single_stretched"
       prop_scale="1"
       scale_y_rel="false"
       spacing="0"
       normal_offset="0"
       tang_offset="0"
       prop_units="false"
       vertical_pattern="false"
       fuse_tolerance="0" />
    <inkscape:path-effect
       effect="skeletal"
       id="path-effect4229"
       is_visible="true"
       pattern="m 0,-1210.3543 c 0,-2.76 2.24,-5 5,-5 2.76,0 5,2.24 5,5 0,2.76 -2.24,5 -5,5 -2.76,0 -5,-2.24 -5,-5 z"
       copytype="single_stretched"
       prop_scale="1"
       scale_y_rel="false"
       spacing="0"
       normal_offset="0"
       tang_offset="0"
       prop_units="false"
       vertical_pattern="false"
       fuse_tolerance="0" />
    <inkscape:path-effect
       effect="skeletal"
       id="path-effect4225"
       is_visible="true"
       pattern="m 0,-1210.3543 c 0,-2.76 2.24,-5 5,-5 2.76,0 5,2.24 5,5 0,2.76 -2.24,5 -5,5 -2.76,0 -5,-2.24 -5,-5 z"
       copytype="single_stretched"
       prop_scale="1"
       scale_y_rel="false"
       spacing="0"
       normal_offset="0"
       tang_offset="0"
       prop_units="false"
       vertical_pattern="false"
       fuse_tolerance="0" />
    <inkscape:path-effect
       effect="skeletal"
       id="path-effect4221"
       is_visible="true"
       pattern="m 0,-1210.3543 c 0,-2.76 2.24,-5 5,-5 2.76,0 5,2.24 5,5 0,2.76 -2.24,5 -5,5 -2.76,0 -5,-2.24 -5,-5 z"
       copytype="single_stretched"
       prop_scale="1"
       scale_y_rel="false"
       spacing="0"
       normal_offset="0"
       tang_offset="0"
       prop_units="false"
       vertical_pattern="false"
       fuse_tolerance="0" />
    <inkscape:path-effect
       effect="skeletal"
       id="path-effect4217"
       is_visible="true"
       pattern="m 0,-1210.3543 c 0,-2.76 2.24,-5 5,-5 2.76,0 5,2.24 5,5 0,2.76 -2.24,5 -5,5 -2.76,0 -5,-2.24 -5,-5 z"
       copytype="single_stretched"
       prop_scale="1"
       scale_y_rel="false"
       spacing="0"
       normal_offset="0"
       tang_offset="0"
       prop_units="false"
       vertical_pattern="false"
       fuse_tolerance="0" />
    <inkscape:path-effect
       effect="skeletal"
       id="path-effect4209"
       is_visible="true"
       pattern="m 0,-1210.3543 c 0,-2.76 2.24,-5 5,-5 2.76,0 5,2.24 5,5 0,2.76 -2.24,5 -5,5 -2.76,0 -5,-2.24 -5,-5 z"
       copytype="single_stretched"
       prop_scale="1"
       scale_y_rel="false"
       spacing="0"
       normal_offset="0"
       tang_offset="0"
       prop_units="false"
       vertical_pattern="false"
       fuse_tolerance="0" />
    <inkscape:path-effect
       effect="skeletal"
       id="path-effect4205"
       is_visible="true"
       pattern="m 0,-1210.3543 c 0,-2.76 2.24,-5 5,-5 2.76,0 5,2.24 5,5 0,2.76 -2.24,5 -5,5 -2.76,0 -5,-2.24 -5,-5 z"
       copytype="single_stretched"
       prop_scale="1"
       scale_y_rel="false"
       spacing="0"
       normal_offset="0"
       tang_offset="0"
       prop_units="false"
       vertical_pattern="false"
       fuse_tolerance="0" />
    <inkscape:path-effect
       effect="skeletal"
       id="path-effect4201"
       is_visible="true"
       pattern="m 0,-1210.3543 c 0,-2.76 2.24,-5 5,-5 2.76,0 5,2.24 5,5 0,2.76 -2.24,5 -5,5 -2.76,0 -5,-2.24 -5,-5 z"
       copytype="single_stretched"
       prop_scale="1"
       scale_y_rel="false"
       spacing="0"
       normal_offset="0"
       tang_offset="0"
       prop_units="false"
       vertical_pattern="false"
       fuse_tolerance="0" />
    <inkscape:path-effect
       effect="skeletal"
       id="path-effect4197"
       is_visible="true"
       pattern="m 0,-1210.3543 c 0,-2.76 2.24,-5 5,-5 2.76,0 5,2.24 5,5 0,2.76 -2.24,5 -5,5 -2.76,0 -5,-2.24 -5,-5 z"
       copytype="single_stretched"
       prop_scale="1"
       scale_y_rel="false"
       spacing="0"
       normal_offset="0"
       tang_offset="0"
       prop_units="false"
       vertical_pattern="false"
       fuse_tolerance="0" />
    <inkscape:path-effect
       effect="skeletal"
       id="path-effect4193"
       is_visible="true"
       pattern="m 0,-1210.3543 c 0,-2.76 2.24,-5 5,-5 2.76,0 5,2.24 5,5 0,2.76 -2.24,5 -5,5 -2.76,0 -5,-2.24 -5,-5 z"
       copytype="single_stretched"
       prop_scale="1"
       scale_y_rel="false"
       spacing="0"
       normal_offset="0"
       tang_offset="0"
       prop_units="false"
       vertical_pattern="false"
       fuse_tolerance="0" />
    <inkscape:path-effect
       effect="skeletal"
       id="path-effect4181"
       is_visible="true"
       pattern="m 0,-1210.3543 c 0,-2.76 2.24,-5 5,-5 2.76,0 5,2.24 5,5 0,2.76 -2.24,5 -5,5 -2.76,0 -5,-2.24 -5,-5 z"
       copytype="single_stretched"
       prop_scale="1"
       scale_y_rel="false"
       spacing="0"
       normal_offset="0"
       tang_offset="0"
       prop_units="false"
       vertical_pattern="false"
       fuse_tolerance="0" />
    <inkscape:path-effect
       effect="skeletal"
       id="path-effect4169"
       is_visible="true"
       pattern="m 0,-1210.3543 c 0,-2.76 2.24,-5 5,-5 2.76,0 5,2.24 5,5 0,2.76 -2.24,5 -5,5 -2.76,0 -5,-2.24 -5,-5 z"
       copytype="single_stretched"
       prop_scale="1"
       scale_y_rel="false"
       spacing="0"
       normal_offset="0"
       tang_offset="0"
       prop_units="false"
       vertical_pattern="false"
       fuse_tolerance="0" />
  </defs>
  <sodipodi:namedview
     id="base"
     pagecolor="#ffffff"
     bordercolor="#666666"
     borderopacity="1.0"
     inkscape:pageopacity="0.0"
     inkscape:pageshadow="2"
     inkscape:zoom="0.5686431"
     inkscape:cx="421.67994"
     inkscape:cy="1867.1413"
     inkscape:document-units="px"
     inkscape:current-layer="layer1"
     showgrid="false"
     inkscape:window-width="1920"
     inkscape:window-height="1017"
     inkscape:window-x="1360"
     inkscape:window-y="30"
     inkscape:window-maximized="1" />
  <metadata
     id="metadata7">
    <rdf:RDF>
      <cc:Work
         rdf:about="">
        <dc:format>image/svg+xml</dc:format>
        <dc:type
           rdf:resource="http://purl.org/dc/dcmitype/StillImage" />
        <dc:title />
      </cc:Work>
    </rdf:RDF>
  </metadata>
  <g
     inkscape:label="Layer 1"
     inkscape:groupmode="layer"
     id="layer1"
     transform="translate(0,1215.3543)">
    <rect
       style="opacity:1;fill:#b7c8b7;fill-opacity:1;stroke:none;stroke-width:2.70000005;stroke-linecap:round;stroke-miterlimit:10;stroke-dasharray:none;stroke-dashoffset:0.72000009;stroke-opacity:1"
       id="rect4146"
       width="2185.7144"
       height="2277.1428"
       x="1.3623918e-07"
       y="-1219.0664" />
    <path
       sodipodi:type="spiral"
       style="fill:none;fill-rule:evenodd;stroke:none;stroke-width:1px;stroke-linecap:butt;stroke-linejoin:miter;stroke-opacity:1"
       id="path4148"
       sodipodi:cx="1422.8572"
       sodipodi:cy="-739.06628"
       sodipodi:expansion="1"
       sodipodi:revolution="3"
       sodipodi:radius="3415.8071"
       sodipodi:argument="-18.220943"
       sodipodi:t0="0"
       d="m 1422.8572,-739.06628 c 75.5677,54.93712 28.8804,160.95878 -36.3633,200.0437 -39.7894,23.83624 -84.9136,33.04256 -131.0178,30.19427 -55.2919,-3.41589 -110.2184,-24.67638 -154.9497,-56.90657 -158.26881,-114.0374 -197.12343,-330.38488 -138.14518,-508.09362 131.26338,-395.5128 608.72328,-513.7831 962.61928,-355.9517 519.3511,231.6214 664.803,876.90039 418.8086,1360.238334 C 2015.9881,574.57165 1197.5131,747.78714 585.95165,412.12361 -185.5108,-11.303671 -385.95434,-1001.9147 41.42931,-1743.3529 558.78791,-2640.8824 1725.3768,-2869.2665 2594.5249,-2350.7321 3618.3304,-1739.929 3874.7222,-396.67256 3264.761,599.98255 2891.6607,1209.6154 2239.5368,1614.8201 1531.6047,1698.3712 969.68348,1764.69 396.01436,1632.4143 -83.572764,1333.0755 -762.62113,909.24115 -1211.3724,176.1315 -1298.9481,-617.63152 c -69.069,-626.02348 82.4471,-1263.72388 419.4255,-1795.24578 474.52938,-748.4836 1288.65471,-1240.7978 2168.2578,-1332.3619 690.1223,-71.8397 1391.8646,98.9215 1975.3141,473.5552 817.9337,525.1962 1353.8229,1420.359 1449.3485,2385.80852 74.6257,754.2188 -115.3843,1520.01107 -527.6849,2155.38248" />
    <path
       style="fill:none;fill-rule:evenodd;stroke:none;stroke-width:1px;stroke-linecap:butt;stroke-linejoin:miter;stroke-opacity:1"
       d="m 2402.8571,-881.92346 -980,148.57143 L 3400,343.79082"
       id="path4150"
       inkscape:connector-curvature="0" />
    <path
       style="fill:none;fill-rule:evenodd;stroke:none;stroke-width:1px;stroke-linecap:butt;stroke-linejoin:miter;stroke-opacity:1"
       d="m 1428.5714,-733.35203 2760,1994.28573"
       id="path4152"
       inkscape:connector-curvature="0" />
    <path
       style="opacity:1;fill:#b7c8b7;fill-opacity:1;stroke:none;stroke-width:2.70000005;stroke-linecap:round;stroke-miterlimit:10;stroke-dasharray:none;stroke-dashoffset:0.72000009;stroke-opacity:1"
       d="m 2263.8037,1083.2519 -75.7143,-55.0207 -0.769,-63.4002 c -0.4229,-34.8701 -0.3268,-63.40018 0.2136,-63.40018 1.1316,0 180.2515,97.06521 198.1989,107.40418 l 11.9293,6.8721 -11.3666,29.2904 c -17.9294,46.2019 -40.0192,93.5903 -43.5498,93.4256 -1.7753,-0.083 -37.2993,-24.9099 -78.9421,-55.1712 z"
       id="path4154"
       inkscape:connector-curvature="0"
       transform="translate(0,-1215.3543)" />
    <path
       style="opacity:1;fill:#b7c8b7;fill-opacity:1;stroke:none;stroke-width:2.70000005;stroke-linecap:round;stroke-miterlimit:10;stroke-dasharray:none;stroke-dashoffset:0.72000009;stroke-opacity:1"
       d="m 2806.3303,1475.1919 -458.902,-331.7472 13.501,-28.8641 c 7.4256,-15.8752 19.0411,-43.0069 25.8123,-60.2926 6.7711,-17.2858 13.2097,-32.4796 14.3079,-33.7642 1.506,-1.7615 474.8261,254.4409 993.3952,537.7127 2.4527,1.3398 -7.9415,24.9447 -34.7785,78.9812 -35.4223,71.3229 -89.4596,170.064 -92.9386,169.8244 -0.8224,-0.056 -208.0012,-149.3892 -460.3973,-331.8502 z"
       id="path4156"
       inkscape:connector-curvature="0"
       transform="translate(0,-1215.3543)" />
    <path
       style="fill:none;fill-rule:evenodd;stroke:#000000;stroke-width:1px;stroke-linecap:butt;stroke-linejoin:miter;stroke-opacity:1"
       d="m 3448.5714,-1324.7806 1120,-234.2857"
       id="path4158"
       inkscape:connector-curvature="0" />
    <path
       style="fill:none;fill-rule:evenodd;stroke:#000000;stroke-width:1px;stroke-linecap:butt;stroke-linejoin:miter;stroke-opacity:1"
       d="m 2157.1429,-1281.9235 1151.4285,-357.1428"
       id="path4160"
       inkscape:connector-curvature="0" />
    <path
       style="fill:#5d6c53;fill-rule:evenodd;stroke:#000000;stroke-width:1px;stroke-linecap:butt;stroke-linejoin:miter;stroke-opacity:1"
       d="m -108.57143,-447.63775 c -45.04312,9.00863 2.63008,-1.82907 -20,5.71429 -0.90351,0.30117 -2.00531,-0.42592 -2.85714,0 -1.20468,0.60234 -1.57939,2.43122 -2.85714,2.85714 -1.80702,0.60234 -3.80953,0 -5.71429,0 -1.90476,0.95238 -3.69398,2.18371 -5.71429,2.85714 -2.39464,0.79822 -9.53507,-0.94675 -11.42857,0 -1.20467,0.60234 -1.65246,2.25481 -2.85714,2.85715 -1.70367,0.85183 -4.01061,-0.85184 -5.71429,0 -2.53239,1.26619 -5.97052,6.83749 -8.57142,8.57143 -1.77193,1.18128 -4.01062,1.57939 -5.71429,2.85714 -4.30998,3.23249 -7.11859,8.19608 -11.42857,11.42857 -1.70367,1.27775 -4.01062,1.57939 -5.71429,2.85714 -4.30998,3.23249 -7.11858,8.19609 -11.42857,11.42857 -3.40734,2.55551 -8.02123,3.15878 -11.42857,5.71429 -2.15499,1.61624 -3.55929,4.09804 -5.71429,5.71429 -1.70367,1.27775 -4.01061,1.57939 -5.71428,2.85714 -2.15499,1.61624 -3.5593,4.09804 -5.71429,5.71428 -1.70367,1.27776 -4.01061,1.57939 -5.71428,2.85715 -2.15499,1.61624 -3.5593,4.09804 -5.71429,5.71428 -1.70367,1.27776 -3.80952,1.90476 -5.71428,2.85715 -2.85715,1.90476 -5.89004,3.56917 -8.57143,5.71428 -2.10346,1.68277 -3.61083,4.03152 -5.71429,5.71429 -2.68139,2.14511 -6.14332,3.28618 -8.57143,5.71428 -2.4281,2.42811 -3.28618,6.14333 -5.71428,8.57143 -2.42811,2.42811 -6.14333,3.28618 -8.57143,5.71429 -2.42811,2.4281 -3.28618,6.14332 -5.71429,8.57143 -2.4281,2.4281 -5.93346,3.51598 -8.57143,5.71428 -3.10408,2.58674 -5.46734,5.98469 -8.57142,8.57143 -2.63797,2.1983 -5.77719,3.7184 -8.57143,5.71429 -3.87492,2.7678 -7.46643,5.92999 -11.42857,8.57142 -20.01817,13.34545 -7.94119,3.63146 -22.85715,14.28572 -7.74984,5.5356 -15.54075,11.04586 -22.85714,17.14286 -3.1746,2.6455 -11.90476,12.69841 -14.28571,14.28571 -5.31578,3.54385 -11.66454,5.28444 -17.14286,8.57143 -8.1666,4.89996 -14.53184,12.51768 -22.85714,17.14286 -22.41309,12.4517 -6.74176,-1.97646 -25.71429,14.2857 -6.13572,5.2592 -11.42857,11.4286 -17.14286,17.1429 -2.85714,2.8571 -5.98469,5.4673 -8.57143,8.5714 -2.1983,2.638 -3.51598,5.9335 -5.71428,8.5714 -11.38252,13.6591 -4.88396,4.07 -17.14286,14.2857 -6.20816,5.1735 -11.00714,11.8837 -17.14286,17.1429 -3.6155,3.099 -7.61904,5.7143 -11.42857,8.5714 -3.80952,2.8572 -7.39048,6.0476 -11.42857,8.5715 -20.0568,12.5355 -3.65999,-2.0543 -20,14.2857 -2.85714,2.8571 -5.98469,5.4673 -8.57143,8.5714 -2.1983,2.638 -3.28618,6.1433 -5.71428,8.5714 -2.42811,2.4281 -5.93347,3.516 -8.57143,5.7143 -28.08403,23.4034 8.18893,-5.3318 -14.28572,17.1429 -2.4281,2.4281 -5.93346,3.516 -8.57142,5.7143 -3.10409,2.5867 -5.9847,5.4673 -8.57143,8.5714 -2.19831,2.6379 -3.0329,6.4263 -5.71429,8.5714 -4.70347,3.7628 -12.43938,1.9515 -17.14286,5.7143 -2.68139,2.1451 -3.51598,5.9335 -5.71428,8.5714 -2.58674,3.1041 -5.46735,5.9847 -8.57143,8.5715 -22.85714,15.238 4.7619,-4.762 -14.28571,14.2857 -2.42811,2.4281 -6.14333,3.2861 -8.57143,5.7143 -2.42811,2.4281 -3.51599,5.9334 -5.71429,8.5714 -4.31122,5.1735 -9.52381,9.5238 -14.28571,14.2857 -2.85715,2.8571 -5.46735,5.9847 -8.57143,8.5714 -2.63796,2.1983 -5.62692,3.9476 -8.57143,5.7143 -1.82611,1.0957 -4.20844,1.3513 -5.71429,2.8572 -20.50609,20.506 1.97775,3.7365 -14.28571,20 -2.4281,2.4281 -5.71429,3.8095 -8.57143,5.7142 -1.90476,2.8572 -3.51598,5.9335 -5.71428,8.5715 -23.40337,28.084 5.33178,-8.189 -17.14286,14.2857 -22.47465,22.4746 13.79832,-6.2605 -14.28572,17.1428 -2.63796,2.1983 -6.37312,3.0764 -8.57142,5.7143 -2.72666,3.272 -3.23869,7.9628 -5.71429,11.4286 -2.34856,3.288 -6.22287,5.2834 -8.57143,8.5714 -2.47559,3.4659 -2.98763,8.1566 -5.71428,11.4286 -2.19831,2.638 -5.93347,3.516 -8.57143,5.7143 -3.10409,2.5867 -5.9847,5.4673 -8.57143,8.5714 -8.11152,9.7338 -3.99261,9.7069 -14.28572,20 -2.4281,2.4281 -6.37312,3.0763 -8.57142,5.7143 -2.72666,3.272 -2.9096,8.2232 -5.71429,11.4286 -4.0157,4.5893 -9.97363,7.1165 -14.28571,11.4285 -2.42811,2.4281 -3.7184,5.7772 -5.71429,8.5715 -2.7678,3.8749 -5.47242,7.813 -8.57143,11.4285 -5.25919,6.1358 -11.96938,10.9347 -17.14286,17.1429 -2.1983,2.638 -3.28618,6.1433 -5.71428,8.5714 -7.61905,7.6191 -10.47619,2.8572 -14.28572,14.2857 -0.9035,2.7106 0.56034,5.7698 0,8.5715 -0.83529,4.1764 -4.68128,7.2965 -5.71428,11.4285 -0.46197,1.8479 0,3.8096 0,5.7143 0,6.8676 0.30117,-1.2047 -2.85714,11.4286 -0.23099,0.9239 0.42591,2.0053 0,2.8571 -0.60234,1.2047 -2.25481,1.6525 -2.85715,2.8572 -0.42591,0.8518 0,1.9047 0,2.8571 0,1.9048 0.60234,3.9073 0,5.7143 -0.42591,1.2778 -1.90476,1.9048 -2.85714,2.8572 0,1.9047 0.60234,3.9072 0,5.7142 -0.42592,1.2778 -1.90476,1.9048 -2.85714,2.8572 -0.95238,1.9047 -2.34064,3.6483 -2.85715,5.7143 -0.46197,1.8479 0.46198,3.8664 0,5.7143 -0.5165,2.066 -1.90476,3.8095 -2.85714,5.7142 -0.95238,1.9048 -1.57939,4.0107 -2.85714,5.7143 -1.61625,2.155 -4.32837,3.4044 -5.71429,5.7143 -1.5495,2.5825 -1.30764,5.9889 -2.85714,8.5714 -1.38592,2.3099 -4.65317,3.2384 -5.71429,5.7143 -1.91295,4.4636 -1.52304,9.6164 -2.85714,14.2857 -0.58504,2.0477 -2.18371,3.694 -2.85714,5.7143 -0.30117,0.9035 0.42592,2.0053 0,2.8572 -0.60234,1.2046 -2.25481,1.6524 -2.85714,2.8571 -0.42592,0.8518 0.42591,2.0053 0,2.8572 -0.60234,1.2046 -2.25481,1.6524 -2.85715,2.8571 -1.14285,2.2857 1.14286,6.2857 0,8.5714 -0.60234,1.2047 -2.2548,1.6525 -2.85714,2.8572 -0.42592,0.8518 0.95238,2.8571 0,2.8571 -0.95238,0 0,-1.9048 0,-2.8571"
       id="path4162"
       inkscape:connector-curvature="0" />
    <path
       style="opacity:1;fill:#5d6c53;fill-opacity:1;stroke:none;stroke-width:2.70000005;stroke-linecap:round;stroke-miterlimit:10;stroke-dasharray:none;stroke-dashoffset:0.72000009;stroke-opacity:1"
       d="m 1116.6608,2925.4099 c -79.733,-5.7312 -104.0913,-7.8225 -148.5714,-12.7561 -563.60258,-62.5129 -1094.11295,-318.5894 -1500.06769,-724.0801 -124.4782,-124.3359 -233.06776,-256.5098 -329.7889,-401.4148 -43.73093,-65.5165 -106.87733,-169.8658 -105.39377,-174.1629 1.13446,-3.286 854.5757,-840.14963 856.67893,-840.03847 0.78571,0.0415 6.36737,15.38349 12.403682,34.09325 16.155886,50.07573 47.588772,126.69247 72.683257,177.16333 l 22.0559147,44.35959 1.4285714,622.8571 1.42857143,622.8572 1092.85713347,0 1092.8572,0 0.7231,-445.2467 0.7234,-445.2467 26.5803,-33.3248 c 46.7566,-58.6206 78.974,-106.5747 114.0394,-169.7422 l 18.63,-33.5604 458.9375,331.6038 c 252.4157,182.3821 458.9377,332.5813 458.9377,333.776 0,3.759 -72.6052,112.5761 -101.5726,152.2324 -219.4131,300.3744 -513.5671,546.6746 -854.1417,715.188 -270.9046,134.0412 -547.7561,211.6556 -857.1429,240.2969 -45.3903,4.202 -294.143,8.031 -334.2857,5.1456 z"
       id="path4164"
       inkscape:connector-curvature="0"
       transform="translate(0,-1215.3543)" />
    <path
       style="opacity:1;fill:#6f916f;fill-opacity:1;stroke:none;stroke-width:2.70000005;stroke-linecap:round;stroke-miterlimit:10;stroke-dasharray:none;stroke-dashoffset:0.72000009;stroke-opacity:1"
       d="M 3730.5332,2142.8288 C 3479.332,1961.312 3273.4173,1811.6529 3272.9451,1810.253 c -0.4723,-1.4 10.8348,-22.922 25.1269,-47.8266 162.3217,-282.8542 255.6419,-582.5242 287.6967,-923.85272 7.1971,-76.63612 7.1862,-284.74046 -0.02,-362.85714 -17.4341,-189.02638 -49.5146,-344.00549 -106.153,-512.824205 -13.1742,-39.267588 -23.724,-71.580155 -23.444,-71.805695 0.8727,-0.70293 1110.4749,-232.51296 1112.9668,-232.51296 2.3997,0 23.5305,66.80226 41.5733,131.42857 47.0389,168.485343 84.9043,372.53243 101.5344,547.14286 17.3707,182.3866 18.9483,397.15877 4.2708,581.42857 -40.8865,513.31202 -202.3067,1017.00632 -468.3476,1461.42852 -42.193,70.4836 -56.347,92.7307 -59.0448,92.8058 -1.013,0.029 -207.3702,-148.4624 -458.5714,-329.9792 z"
       id="path4166"
       inkscape:connector-curvature="0"
       transform="translate(0,-1215.3543)" />
    <path
       style="fill:none;fill-rule:evenodd;stroke:none;stroke-width:1px;stroke-linecap:butt;stroke-linejoin:miter;stroke-opacity:1"
       d="m 2411.4286,-884.7806 -977.1429,148.57142"
       id="path4170"
       inkscape:connector-curvature="0" />
    <path
       style="opacity:1;fill:#6f916f;fill-opacity:1;stroke:none;stroke-width:2.70000005;stroke-linecap:round;stroke-miterlimit:10;stroke-dasharray:none;stroke-dashoffset:0.72000009;stroke-opacity:1"
       d="m 2290.9465,953.11748 -102.8571,-56.3042 -0.729,-264.30814 -0.729,-264.30816 107.1524,-16.32791 c 58.9338,-8.98036 108.7987,-16.95964 110.8107,-17.73175 2.5731,-0.98739 6.8183,9.84493 14.3108,36.51627 29.2536,104.13495 41.103,200.73693 38.2958,312.2058 -2.69,106.81363 -15.6163,187.69146 -46.6918,292.14286 -5.727,19.25 -11.8287,34.86935 -13.5592,34.70975 -1.7305,-0.1597 -49.4321,-25.62718 -106.0036,-56.59452 z"
       id="path4172"
       inkscape:connector-curvature="0"
       transform="translate(0,-1215.3543)" />
    <path
       style="opacity:1;fill:#e2e3db;fill-opacity:1;stroke:none;stroke-width:2.70000005;stroke-linecap:round;stroke-miterlimit:10;stroke-dasharray:none;stroke-dashoffset:0.72000009;stroke-opacity:1"
       d="m 2900.9465,1285.2735 c -272.6428,-148.6032 -496.2135,-270.6522 -496.8238,-271.2199 -0.6102,-0.5678 4.2498,-18.94141 10.8,-40.83032 31.1724,-104.169 42.8154,-180.19929 45.1213,-294.6496 1.254,-62.23977 0.5798,-88.37043 -3.2437,-125.71429 -15.8246,-154.55737 -60.0426,-291.80268 -134.169,-416.4384 -37.0217,-62.248197 -73.6166,-109.558169 -127.0654,-164.270683 -19.5702,-20.032857 -35.0441,-36.892657 -34.3865,-37.4662 2.644,-2.306029 1130.2403,-350.967167 1136.3894,-351.380057 5.7775,-0.38793 10.4139,6.48047 36.3448,53.84106 43.7015,79.81723 118.5566,245.7688 114.1061,252.96994 -0.767,1.24094 -0.048,2.705 1.597,3.25346 3.8275,1.2758 43.6873,119.149825 59.2467,175.205168 39.3296,141.691142 63.0154,278.079832 75.4197,434.285712 4.7508,59.82512 4.7802,246.46877 0.048,305.71429 -16.6582,208.56682 -51.6482,380.07192 -116.1418,569.27392 -23.0327,67.5702 -67.2601,178.4641 -70.8878,177.7412 -0.3526,-0.07 -223.7124,-121.7121 -496.3553,-270.3153 z"
       id="path4174"
       inkscape:connector-curvature="0"
       transform="translate(0,-1215.3543)" />
    <path
       style="opacity:1;fill:#e2e3db;fill-opacity:1;stroke:none;stroke-width:2.70000005;stroke-linecap:round;stroke-miterlimit:10;stroke-dasharray:none;stroke-dashoffset:0.72000009;stroke-opacity:1"
       d="m -2779.0535,1407.1451 0,-2797.1429 1014.2858,0 c 557.8571,0 1014.28567,0.5732 1014.28567,1.2738 0,0.7005 -12.49817,18.3791 -27.77375,39.2857 -298.19832,408.12338 -482.54772,898.49335 -527.71622,1403.726264 -15.3225,171.390546 -13.1633,380.614286 5.6467,547.142856 37.3169,330.37506 138.9592,659.58108 293.2045,949.65088 26.68014,50.174 28.55217,54.7583 26.83545,65.7143 -1.80174,11.4988 -1.73503,11.622 2.8168,5.2 4.60052,-6.4906 5.09623,-5.8475 37.43635,48.5714 162.57568,273.5666 374.67174,517.4963 619.11477,712.0383 206.15388,164.0694 435.84825,294.5571 681.86397,387.3623 529.76828,199.846 1106.70516,215.358 1629.99996,43.8254 526.7355,-172.6603 975.5789,-519.9057 1262.798,-976.9577 l 14.558,-23.1666 458.4649,331.3123 c 355.5509,256.9406 458.312,332.53 457.7843,336.7377 -0.3743,2.9843 -0.1143,5.426 0.5757,5.426 3.8429,0 82.0374,-129.2037 124.5237,-205.7543 37.2577,-67.1303 100.1817,-194.0031 131.8403,-265.828 168.1066,-381.3894 262.6037,-777.4702 285.2371,-1195.56055 3.8655,-71.40574 3.822,-263.7958 -0.077,-335.00214 -24.6937,-451.141289 -135.1226,-872.86906 -333.2394,-1272.64397 -107.036,-215.98534 -224.5095,-400.23744 -381.7649,-598.78244 -2.2623,-2.8562 286.78,-3.5715 1443.2354,-3.5715 l 1446.064,0 0,2797.1429 0,2797.1429 -4840,0 -4840,0 0,-2797.1429 z"
       id="path4176"
       inkscape:connector-curvature="0"
       transform="translate(0,-1215.3543)" />
    <path
       style="opacity:1;fill:#e2e3db;fill-opacity:1;stroke:none;stroke-width:2.70000005;stroke-linecap:round;stroke-miterlimit:10;stroke-dasharray:none;stroke-dashoffset:0.72000009;stroke-opacity:1"
       d="m 2186.6608,1204.7442 0,-172.2743 19.3964,13.7662 c 84.2889,59.8224 134.7271,97.0822 134.8014,99.5809 0.1542,5.1842 -42.5175,78.5712 -67.9329,116.8313 -22.0866,33.249 -51.4001,72.5606 -76.9792,103.2348 l -9.2857,11.1354 0,-172.2743 z"
       id="path4178"
       inkscape:connector-curvature="0"
       transform="translate(0,-1215.3543)" />
    <path
       style="opacity:1;fill:#e2e3db;fill-opacity:1;stroke:none;stroke-width:2.70000005;stroke-linecap:round;stroke-miterlimit:10;stroke-dasharray:none;stroke-dashoffset:0.72000009;stroke-opacity:1"
       d="m 2186.6608,178.57368 0,-182.8571446 -574.2857,0 c -315.8571,0 -574.2857,-0.7387 -574.2857,-1.6415543 0,-4.4266371 35.8788,-48.5165081 59.6711,-73.3270111 50.6934,-52.86317 108.2239,-94.1373 178.5811,-128.1196 152.5064,-73.66008 338.0967,-92.03752 511.7478,-50.67405 218.5295,52.05344 413.8223,198.593644 533.3773,400.22582 25.1076,42.34457 54.9038,104.52411 72.0621,150.38134 7.2884,19.479 12.8955,35.7726 12.4601,36.20797 -1.1567,1.15671 -207.4773,32.66137 -213.8957,32.66137 -5.2818,0 -5.4324,-5.06831 -5.4324,-182.85714 z"
       id="path4180"
       inkscape:connector-curvature="0"
       transform="translate(0,-1215.3543)" />
    <text
       xml:space="preserve"
       style="font-style:normal;font-weight:normal;font-size:265.13723755px;line-height:125%;font-family:sans-serif;letter-spacing:0px;word-spacing:0px;fill:#000000;fill-opacity:1;stroke:none;stroke-width:1px;stroke-linecap:butt;stroke-linejoin:miter;stroke-opacity:1"
       x="1745.2927"
       y="-471.3504"
       id="text4182"
       sodipodi:linespacing="125%"><tspan
         sodipodi:role="line"
         id="tspan4184"
         x="1745.2927"
         y="-471.3504">snakeAmpSeq</tspan></text>
    <path
       style="fill:#5d6c53;fill-rule:evenodd;stroke:none;stroke-width:1px;stroke-linecap:butt;stroke-linejoin:miter;stroke-opacity:1"
       d="m 657.65741,-668.53147 c -0.52487,-0.57162 7.97552,-11.86118 28.22499,-24.04509 9.36664,-5.63473 20.71608,-11.10201 34.38584,-15.83979 23.10253,-7.99806 48.75001,-12.79229 79.10102,-15.44244 3.29493,-0.28915 6.61331,-0.55213 9.95801,-0.79072 40.45027,-2.88555 91.18476,-2.0031 115.83557,-1.7842 29.52877,0.26222 47.85517,0.22723 47.94481,1.57184 0.0938,1.40734 -18.12409,3.94364 -47.79071,5.4981 -9.14201,0.47902 -91.0858,2.95368 -115.27719,4.68523 -3.29867,0.23611 -6.56821,0.49033 -9.81351,0.76477 -30.03343,2.55316 -54.63603,6.55589 -77.37334,13.45105 -13.38264,4.05266 -24.48804,8.65229 -33.91853,13.40713 -20.21249,10.18828 -30.22627,19.66838 -31.27696,18.52412 z"
       id="path4167"
       inkscape:path-effect="#path-effect4169"
       inkscape:original-d="m 657.65741,-668.53147 c 72.74081,-66.79231 201.15002,-48.71038 315.45024,-56.3304"
       inkscape:connector-curvature="0" />
    <path
       style="fill:#5d6c53;fill-rule:evenodd;stroke:none;stroke-width:1px;stroke-linecap:butt;stroke-linejoin:miter;stroke-opacity:1"
       d="m 926.03427,-364.92993 c -0.18684,-0.0625 -0.0986,-2.09515 2.48344,-4.98787 1.39113,-1.57585 3.20431,-3.15348 5.76713,-4.89894 4.77118,-3.25671 10.42725,-6.12122 18.60977,-9.36853 7.31725,-2.91156 15.5344,-5.6425 25.38542,-8.36395 8.77174,-2.42443 18.43125,-4.71717 29.10357,-6.78013 9.2111,-1.78107 19.2171,-3.39875 29.7941,-4.6011 8.6448,-0.98419 17.9401,-1.73376 27.505,-1.81641 7.0951,-0.0722 14.7409,0.17823 22.4063,1.64412 2.7893,0.52868 5.6954,1.28015 8.5742,2.46739 2.1923,0.87092 4.4895,2.17108 6.5491,4.13937 2.7653,2.86743 7.0492,4.56579 11.7508,7.16534 2.3649,1.25958 4.8529,2.65328 7.2846,4.3682 2.168,1.49096 4.3651,3.43095 6.167,6.01766 4.3801,6.48993 7.8504,12.92146 11.7911,19.56396 3.795,6.35215 7.754,12.73865 12.6208,18.01329 2.1772,2.36134 4.5091,4.51865 7.0592,6.20245 2.3921,1.58057 4.9951,2.80898 7.6787,3.43522 2.8248,0.68992 5.8853,0.74227 8.9183,0.27875 3.7395,-0.55991 7.4775,-1.97498 11.1683,-3.81647 7.1233,-3.61379 13.8069,-8.34625 19.242,-14.26558 4.7797,-5.18089 8.659,-11.32197 11.3257,-18.01691 5.2569,-13.01443 5.79,-28.07651 3.001,-42.79115 -2.863,-14.84912 -9.1013,-29.31213 -18.0896,-42.13775 -4.9489,-6.91346 -10.6484,-13.41726 -17.0785,-18.97608 -4.9009,-4.23684 -10.1773,-7.88243 -15.813,-10.7469 -3.0189,-5.13541 -6.8945,-9.76937 -11.3799,-13.59934 -4.0393,-3.43982 -8.7623,-6.18582 -13.7375,-8.4572 -10.9138,-4.99688 -23.3098,-7.71536 -35.3826,-10.78718 -11.445,-2.87575 -23.069,-4.05678 -34.3314,-3.08038 -10.4364,0.88622 -20.5809,3.62768 -29.9117,7.75137 -20.0572,8.79078 -36.7351,24.06812 -50.52758,39.48558 0,0 -2e-5,3e-5 -2e-5,3e-5 -16.04053,17.99799 -30.00217,38.62417 -41.9138,56.40135 -14.1705,21.17833 -24.35546,37.22834 -37.99342,53.85154 -6.4762,7.86657 -14.24194,13.90178 -21.6261,18.54848 -8.50198,5.35714 -17.56571,9.64583 -24.91236,12.9992 -11.09584,5.07241 -16.3345,7.21387 -24.40368,11.33447 -7.427,3.80202 -11.95697,6.7029 -15.62055,9.31931 -3.3645,2.40282 -5.00675,3.83881 -5.2322,3.61336 -0.4004,-0.4004 5.15033,-7.37687 19.30856,-15.73591 7.44099,-4.40297 13.6474,-7.39074 23.97116,-12.63175 7.13267,-3.62598 15.92169,-8.17539 23.85423,-13.54714 6.88959,-4.67209 14.03248,-10.53458 19.7104,-17.86046 13.03,-16.71543 22.51402,-32.47665 36.48447,-54.13479 11.63175,-18.05949 25.45973,-39.11497 41.80335,-57.93628 0,10e-6 2e-5,-2e-5 2e-5,-2e-5 13.98742,-16.16676 31.47902,-32.36494 53.26312,-42.28259 10.1949,-4.60679 21.3306,-7.69232 32.8969,-8.7564 12.4684,-1.12709 25.1783,0.069 37.5584,3.14953 11.9206,2.92656 24.8618,5.78606 37.0944,11.24817 5.6297,2.5206 11.1319,5.74181 16.0797,9.89219 4.7189,3.94359 8.6528,8.8159 11.5485,14.31916 6.1171,3.01194 11.7681,6.81455 16.9327,11.21797 6.7769,5.77812 12.6251,12.51279 17.5359,19.67084 9.7726,13.94957 16.51,29.71436 19.6128,46.0094 3.1348,16.21052 2.3267,33.12113 -3.7277,48.25551 -3.1522,7.78564 -7.7026,14.88301 -13.3172,20.89503 -6.4036,6.82904 -14.0233,12.17228 -22.0487,16.13282 -4.3123,2.16002 -8.9923,3.83007 -13.9672,4.58566 -4.1154,0.61558 -8.3618,0.47165 -12.4672,-0.53676 -3.8692,-0.97965 -7.4262,-2.67094 -10.5552,-4.81567 -3.2901,-2.25683 -6.1375,-4.91232 -8.6217,-7.70159 -5.5014,-6.18174 -9.7242,-13.08548 -13.4764,-19.62524 -3.9833,-6.89283 -7.2692,-13.20834 -11.2769,-19.30018 -0.8631,-1.4108 -2.3546,-2.67451 -4.0354,-3.95302 -1.9119,-1.41061 -4.0972,-2.66149 -6.3595,-3.92587 -4.2848,-2.30225 -9.1833,-4.56559 -13.4409,-8.72153 -0.922,-1.01323 -2.3817,-1.79611 -4.0154,-2.55346 -2.1592,-0.95685 -4.5599,-1.60313 -7.0374,-2.13844 -6.8374,-1.46387 -14.0122,-1.8123 -20.9017,-1.90512 -9.2244,-0.11037 -18.3086,0.42514 -26.8219,1.18647 -10.407,0.93239 -20.3035,2.26627 -29.4385,3.75663 -10.59204,1.7287 -20.17801,3.67045 -28.92178,5.73516 -9.84845,2.32699 -17.96839,4.62802 -25.3195,7.11162 -8.29683,2.81269 -13.72218,5.09749 -18.66169,7.87003 -2.6255,1.47724 -4.40817,2.70311 -5.92072,4.00731 -2.60686,2.27501 -3.34293,3.9806 -3.55364,3.91015 z"
       id="path4179"
       inkscape:path-effect="#path-effect4181"
       inkscape:original-d="m 926.03427,-364.92993 c 7.88529,-23.58405 152.62183,-50.53647 173.38513,-29.7732 5.8612,5.86121 19.5548,9.62935 24.5191,17.07581 15.433,23.14953 28.5204,63.67553 64.8005,45.53549 66.9737,-33.48683 35.3094,-128.80319 -16.2001,-154.55797 -12.5546,-22.58225 -36.9024,-27.72439 -62.6113,-34.15162 -102.5091,-25.62728 -149.36234,95.96032 -198.34209,157.18502 -23.3428,29.17849 -67.02144,35.49687 -89.31962,57.79504"
       inkscape:connector-curvature="0" />
    <path
       style="fill:#5d6c53;fill-rule:evenodd;stroke:none;stroke-width:1px;stroke-linecap:butt;stroke-linejoin:miter;stroke-opacity:1"
       d="m 563.06386,-529.1204 c 0.94281,0.11377 -0.39573,10.56109 0.36811,29.36261 0.75416,18.56325 3.77574,46.0763 15.29011,77.22251 10e-6,-10e-6 10e-6,10e-6 10e-6,10e-6 10.95914,29.69654 28.05326,59.78953 52.84414,92.4833 4.69302,6.2455 11.26726,11.27253 18.68274,15.40809 8.37509,4.64038 17.67808,7.93822 27.53541,10.52768 22.31452,5.84855 45.98991,7.61826 70.90564,7.47129 1.01377,-0.007 2.02855,-0.0176 3.04431,-0.0317 24.33223,-0.33846 47.92021,-2.70075 70.47252,-6.78238 10.65216,-1.93018 20.92742,-4.22271 30.86714,-7.11637 8.21748,-2.40287 15.98113,-5.04948 23.15707,-8.59764 0,0 2e-5,-10e-6 2e-5,-10e-6 1.67993,-0.80016 3.34291,-2.03485 5.07327,-3.40939 2.27016,-1.83007 4.43441,-3.89102 6.55525,-6.03252 5.72582,-5.78832 10.99798,-12.13516 15.97563,-18.35128 0,0 10e-6,-2e-5 10e-6,-2e-5 13.99165,-17.4872 27.34703,-36.57596 38.18006,-52.04582 17.86279,-25.5132 25.1775,-36.43272 38.57044,-55.04718 6.63095,-9.21655 11.78477,-16.12026 16.61292,-22.19788 0,0 0,0 0,0 8.14294,-10.25523 13.25884,-15.2373 13.77684,-14.77107 0.3443,0.30984 -3.864,5.99931 -11.07949,16.74313 0,0 -1e-5,0 -1e-5,0 -4.68861,6.98709 -8.60901,12.97241 -15.15056,23.06758 -6.46524,9.97801 -25.44475,39.50674 -36.61232,56.37144 -10.49857,15.8582 -23.41871,35.16684 -37.43434,53.27972 0,0 -2e-5,2e-5 -2e-5,2e-5 -4.94723,6.39887 -10.32213,13.0496 -16.32745,19.29786 -2.22384,2.31629 -4.60916,4.63457 -7.2287,6.81111 -1.93376,1.62783 -4.15009,3.25629 -6.7545,4.59833 -10e-6,0 -3e-5,2e-5 -3e-5,2e-5 -7.85906,3.96932 -16.12183,6.90744 -24.60446,9.44429 -10.30993,3.09598 -20.90471,5.54717 -31.8043,7.5843 -23.06338,4.31545 -47.20492,6.80814 -72.10621,7.15301 -1.03946,0.0144 -2.07791,0.025 -3.11531,0.0319 -25.44522,0.19436 -50.02411,-1.77918 -73.46962,-8.03027 -10.38913,-2.76402 -20.42289,-6.44758 -29.68224,-11.64741 -8.26185,-4.61255 -15.76624,-10.59454 -21.44343,-18.17599 -24.83858,-33.47836 -41.83025,-64.86612 -52.28122,-95.61304 0,0 -1e-5,-2e-5 -1e-5,-2e-5 -10.99669,-32.40818 -12.9214,-60.72777 -12.46256,-79.61392 0.46533,-19.15324 3.17883,-29.4505 3.64514,-29.39423 z"
       id="path4191"
       inkscape:path-effect="#path-effect4193"
       inkscape:original-d="m 563.06386,-529.1204 c -9.35704,77.54388 20.39108,142.63225 64.80051,201.84482 39.7368,52.98241 199.07357,37.94537 250.4452,12.25956 28.68087,-14.34044 105.1362,-145.42363 132.66593,-176.01219"
       inkscape:connector-curvature="0" />
    <path
       style="fill:#5d6c53;fill-rule:evenodd;stroke:none;stroke-width:1px;stroke-linecap:butt;stroke-linejoin:miter;stroke-opacity:1"
       d="m 748.70856,-600.05068 c 0.11518,0.73144 -6.90449,1.67938 -18.01199,8.00163 -5.42585,3.09465 -11.42939,7.23754 -18.07144,13.07056 -10.17908,8.94667 -21.3272,21.36562 -30.61398,37.88045 -3.70877,6.60542 -7.11536,13.91521 -9.63042,21.76549 -2.1583,6.75512 -3.72973,14.03333 -3.99406,21.46176 -0.2272,6.5094 0.51792,13.26727 2.78351,19.54323 2.16247,6.06857 5.81198,11.79931 10.63666,16.54671 2.72548,2.91454 4.11802,6.23603 4.77752,9.20514 -10e-6,0 0,2e-5 0,2e-5 0.91881,3.52851 1.37561,6.91479 1.8479,10.14244 0.50095,3.27099 0.96494,6.41986 1.82962,9.22196 0,0 10e-6,2e-5 10e-6,2e-5 0.8215,2.43591 1.70663,4.63381 3.0986,5.85009 0,0 10e-6,10e-6 10e-6,10e-6 2.71108,2.75135 6.41719,4.79629 10.49878,6.70821 4.31829,1.97704 8.9469,3.53326 13.80874,5.0461 4.16108,1.28761 8.7365,2.54722 13.2128,4.04853 1.71286,0.5689 3.53603,1.22951 5.40378,2.09822 0,0 3e-5,2e-5 3e-5,2e-5 1.28129,0.52763 2.86798,1.43744 4.51396,2.96399 0,1e-5 4e-5,3e-5 4e-5,3e-5 2.18772,2.27617 5.42923,3.83261 9.00226,5.12145 4.07967,1.40892 8.50215,2.15606 13.08251,2.51571 4.62745,0.34845 9.31887,0.2463 13.97124,-0.33456 4.07751,-0.52851 8.03336,-1.33101 11.59229,-2.77808 2.00435,-0.78573 3.96706,-1.70611 5.89728,-2.7395 6.90543,-3.69697 13.32404,-8.80639 19.52273,-14.10368 8.23122,-7.13527 16.25544,-14.52425 26.00485,-20.39446 20.77169,-12.3614 38.80849,-28.37901 54.37478,-44.358 0,0 10e-6,-2e-5 10e-6,-2e-5 13.31622,-13.6823 34.85142,-38.50573 45.88765,-50.34131 17.67299,-18.98669 33.51668,-33.18103 50.53988,-44.04843 0,0 2e-5,-10e-6 2e-5,-10e-6 11.16217,-7.11392 21.75127,-12.03556 31.05477,-15.41971 23.053,-8.37958 36.9465,-7.71063 36.9713,-7.5497 0.2224,1.44561 -13.407,2.41061 -35.279,11.82278 -8.8331,3.79875 -18.8227,9.02341 -29.33192,16.29244 0,0 -10e-6,10e-6 -10e-6,10e-6 -16.10775,11.1227 -30.88275,25.2276 -47.98336,44.35155 -11.56945,12.9614 -30.70862,36.00503 -45.20224,51.28726 0,0 -1e-5,2e-5 -1e-5,2e-5 -15.70034,16.56976 -34.2169,33.26352 -55.96227,46.41244 -8.60508,5.14246 -16.11595,12.21065 -24.55169,19.4881 -6.36638,5.56835 -13.38183,11.08736 -21.34715,15.34454 -2.22498,1.18917 -4.51629,2.27592 -6.88252,3.23842 -4.66817,1.84376 -9.44995,2.85194 -14.07861,3.40159 -5.33002,0.65535 -10.68552,0.75955 -15.96285,0.34401 -5.21143,-0.39562 -10.45673,-1.33408 -15.53848,-3.0808 -4.48072,-1.48528 -8.97163,-3.85483 -12.72936,-7.52416 0,0 -10e-6,-10e-6 -10e-6,-10e-6 -0.11915,-0.23837 -0.78935,-0.51334 -1.75578,-1.04816 -10e-6,0 -2e-5,-10e-6 -2e-5,-10e-6 -1.29709,-0.62723 -2.77285,-1.15926 -4.35581,-1.70946 -4.11227,-1.41493 -8.61444,-2.68614 -12.9686,-4.07193 -5.01148,-1.58691 -10.01535,-3.33568 -14.91069,-5.61237 -4.61625,-2.1037 -9.21747,-4.83876 -13.14466,-8.72572 0,0 -10e-6,-3e-5 -10e-6,-3e-5 -2.88397,-3.05989 -4.50828,-6.58709 -5.37031,-9.87051 0,0 -10e-6,-3e-5 -10e-6,-3e-5 -1.04092,-3.67153 -1.55465,-7.25216 -1.99077,-10.55226 -0.46436,-3.34047 -0.80893,-6.39235 -1.51976,-9.17906 0,0 0,-2e-5 0,-2e-5 -0.7049,-2.31801 -1.25724,-4.27089 -2.33324,-5.15733 -5.70245,-5.77972 -9.9259,-12.69684 -12.41476,-20.05126 -2.53422,-7.57564 -3.26837,-15.38422 -2.82299,-22.73853 0.50138,-8.35511 2.39163,-16.28433 4.9169,-23.48429 2.92845,-8.36911 6.75293,-16.01405 10.87059,-22.82567 10.25787,-16.99142 22.42982,-29.46372 33.44828,-38.15967 7.18236,-5.6735 13.77067,-9.60167 19.6349,-12.33975 12.17791,-5.6984 19.51609,-5.34787 19.57458,-4.97644 z"
       id="path4195"
       inkscape:path-effect="#path-effect4197"
       inkscape:original-d="m 748.70856,-600.05068 c -48.73447,7.67399 -113.72089,97.75644 -70.05461,141.42272 6.92062,6.92062 3.25598,26.46157 11.38388,34.58946 12.37831,12.37832 41.67656,15.40609 47.28685,21.01638 10.95211,10.95211 38.52511,11.47341 52.9788,5.69194 21.04105,-8.41642 33.12416,-26.26698 52.10311,-37.65435 85.90273,-51.54164 110.56868,-149.67647 216.29361,-165.94184"
       inkscape:connector-curvature="0" />
    <path
       style="fill:#5d6c53;fill-rule:evenodd;stroke:none;stroke-width:1px;stroke-linecap:butt;stroke-linejoin:miter;stroke-opacity:1"
       d="m 740.38957,-594.79659 c -0.34441,-0.2119 0.25381,-2.59438 2.92501,-6.25303 2.59052,-3.54814 7.46924,-8.57805 15.24547,-12.14083 7.37345,-3.35986 15.90385,-5.24112 26.45697,-6.08279 9.2837,-0.76853 17.39657,-0.68035 27.97571,-0.84033 7.88277,-0.14121 16.60539,-0.2878 24.55996,-2.0173 15.60203,-3.31559 37.38869,-8.70285 55.8684,-11.77003 1.09138,-0.18287 2.18782,-0.36121 3.28882,-0.53431 19.51464,-3.06814 37.97094,-4.07328 55.82449,-1.37467 0,0 10e-6,0 10e-6,0 24.1705,3.70536 37.38371,6.46439 56.34159,8.09324 16.5946,1.41006 28.7163,0.69485 38.1994,-0.48487 9.0058,-1.12034 13.9913,-2.40389 14.2518,-1.62238 0.4304,1.29118 -18.7312,10.54442 -52.8772,9.45043 -18.52712,-0.57414 -34.20307,-3.04144 -57.25058,-6.09147 0,0 -2e-5,-10e-6 -2e-5,-10e-6 -16.61025,-2.22459 -33.9557,-1.01246 -52.94787,1.92095 -1.07027,0.16531 -2.13795,0.33478 -3.2024,0.5077 -16.40532,2.69169 -41.22548,8.32674 -55.66982,11.0385 -9.22456,1.70573 -18.45626,1.62112 -26.41366,1.4295 -11.028,-0.23323 -18.34211,-0.7 -27.54851,-0.45663 -10.20011,0.30248 -17.88913,1.32008 -24.85654,3.76953 -15.14003,5.26447 -18.54079,14.4618 -20.17103,13.4588 z"
       id="path4199"
       inkscape:path-effect="#path-effect4201"
       inkscape:original-d="m 740.38957,-594.79659 c 19.29007,-31.35338 67.55781,-16.66402 98.07644,-22.76774 34.88079,-6.97616 76.03651,-18.91085 113.40089,-13.57308 39.89583,5.6994 75.0737,12.77572 109.4603,1.31352"
       inkscape:connector-curvature="0" />
    <path
       style="fill:#5d6c53;fill-rule:evenodd;stroke:none;stroke-width:1px;stroke-linecap:butt;stroke-linejoin:miter;stroke-opacity:1"
       d="m 968.50487,-726.14897 c 0.0336,-1.1636 16.82046,-2.21783 44.43543,-1.35679 27.1073,0.84522 66.5272,3.67179 108.5419,12.44001 0,10e-6 0,10e-6 0,10e-6 6.108,1.27265 12.2957,2.68153 18.5383,4.24094 54.6308,13.64696 94.2769,34.04888 121.8516,53.8343 4.7445,3.45425 13.0087,7.63616 16.8093,9.84085 11.5418,6.62037 14.7709,13.41733 14.2638,13.82303 -0.6359,0.5087 -5.2727,-4.8007 -16.359,-9.6989 -4.1571,-1.8198 -12.1918,-4.94774 -18.2441,-8.66998 -28.6928,-17.70654 -66.7782,-35.90429 -120.7511,-49.413 -6.1192,-1.53155 -12.185,-2.93839 -18.1729,-4.23331 0,0 0,0 0,0 -40.9557,-8.84275 -80.3121,-12.92713 -106.9015,-15.47604 -27.33281,-2.62016 -44.0524,-3.92447 -44.01173,-5.33112 z"
       id="path4203"
       inkscape:path-effect="#path-effect4205"
       inkscape:original-d="m 968.50487,-726.14897 c 100.57793,2.90825 207.40873,15.67694 291.60223,71.80597 12.0562,8.03741 23.7356,9.63824 32.8381,21.01638"
       inkscape:connector-curvature="0" />
    <path
       style="fill:#5d6c53;fill-rule:evenodd;stroke:none;stroke-width:1px;stroke-linecap:butt;stroke-linejoin:miter;stroke-opacity:1"
       d="m 1109.4898,-613.62376 c 0.086,-0.67359 4.008,-1.01288 10.9129,0.56686 3.6812,0.83899 7.8936,2.1186 12.9106,4.02815 8.8698,3.37477 18.5939,8.00925 30.2339,14.58125 0,0 0,0 0,0 19.356,10.92144 40.4292,25.08125 62.9073,43.2876 1.4356,1.16271 2.8582,2.32681 4.2678,3.49153 11.2643,9.3037 21.4763,18.52997 30.7615,27.76551 9.7498,9.69344 17.8552,18.75912 24.7617,27.76048 7.3755,9.5832 12.3022,17.65908 15.6147,25.55729 1.8,4.28285 2.8114,7.96566 3.2656,11.22979 0,0 0,0 0,0 0.9032,6.35381 -0.7293,9.50247 -1.2345,9.42474 -0.6378,-0.0981 -0.5336,-3.31467 -2.3116,-8.60142 0,0 0,-1e-5 0,-1e-5 -0.9767,-2.87553 -2.3404,-5.90692 -4.4938,-9.72491 -4.0285,-7.13283 -9.0934,-13.96147 -16.8772,-22.96303 -7.238,-8.34184 -15.3721,-16.66839 -25.2384,-25.94991 -9.3654,-8.80605 -19.4649,-17.64362 -30.5997,-26.78557 -1.3927,-1.14297 -2.7962,-2.28721 -4.2102,-3.43203 -22.3164,-18.06811 -42.2161,-32.18918 -60.832,-44.01559 0,0 0,0 0,0 -11.2561,-7.1463 -19.9341,-12.12442 -28.3278,-16.39565 -4.7158,-2.39922 -8.3742,-4.0796 -11.7941,-5.52333 -6.1581,-2.59139 -9.803,-3.62754 -9.7167,-4.30175 z"
       id="path4207"
       inkscape:path-effect="#path-effect4209"
       inkscape:original-d="m 1109.4898,-613.62376 c 48.8954,6.25586 201.1218,124.01139 194.4015,167.6932"
       inkscape:connector-curvature="0" />
    <path
       style="fill:#5d6c53;fill-rule:evenodd;stroke:none;stroke-width:1px;stroke-linecap:butt;stroke-linejoin:miter;stroke-opacity:1"
       d="m 1288.5668,-456.00091 c 0.3553,-0.21483 4.0466,3.98933 8.6787,13.19682 4.4751,8.89522 10.2708,23.65087 11.6826,42.46658 1.2161,16.47449 -0.8276,35.46813 -7.7712,56.06421 -5.6436,16.7639 -14.0723,33.69494 -25.4028,50.64996 0,0 0,10e-6 0,10e-6 -9.4263,14.11934 -20.6326,27.97526 -33.6815,41.1356 -3.2305,3.01583 -6.8892,4.54853 -10.1223,5.33492 0,-1e-5 -10e-5,10e-6 -10e-5,10e-6 -4.04,1.14106 -8.0149,1.76482 -11.8575,2.29521 -3.9087,0.55262 -7.8147,1.00628 -11.4794,1.6592 -3.103,0.60227 -5.919,1.11201 -8.0201,2.24255 -8.4898,4.10974 -17.8671,4.78297 -26.6124,3.73506 -3.3837,-0.37114 -6.7265,-0.93895 -10.0305,-1.66411 -6.4043,-1.40562 -12.5807,-3.38474 -18.4838,-5.58572 -9.1467,-3.39092 -17.9087,-7.41272 -26.2748,-11.57983 -6.1839,-3.0783 -13.5146,-7.0197 -19.3221,-9.95195 -5.4945,-2.82228 -11.8253,-4.31862 -18.2019,-5.35781 -7.1993,-1.14508 -14.6742,-1.58975 -21.9549,-1.97354 -7.8417,-0.40524 -15.2402,-0.68084 -22.9433,-1.44339 -7.3108,-0.70606 -14.4991,-1.85655 -21.4529,-4.22402 -8.3693,-2.95312 -15.37739,-8.0174 -21.36802,-12.53031 -7.00673,-5.1836 -12.61318,-9.79854 -19.20412,-13.19598 -8.14441,-4.22749 -15.40345,-8.22486 -22.3141,-12.6216 -8.37113,-5.30608 -15.23577,-10.51504 -20.91713,-16.63134 0,0 -10e-6,-10e-6 -10e-6,-10e-6 -2.84749,-3.0589 -5.18045,-6.22481 -6.89695,-9.60585 -1.76138,-3.44863 -2.65759,-6.99885 -2.67764,-10.38471 0,0 10e-6,-10e-6 10e-6,-10e-6 0.0147,-4.259 1.47303,-7.88884 3.11145,-10.50531 5.04709,-8.02414 10.34916,-8.99758 10.17884,-9.21048 0.80653,1.00816 -3.88148,2.90439 -7.58398,10.65235 -1.15705,2.41388 -2.10196,5.59262 -1.81319,8.92283 0,0 0,10e-6 0,10e-6 0.19973,2.69012 1.17379,5.49312 2.82424,8.33413 1.64391,2.81376 3.86717,5.44365 6.61978,8.12905 0,0 10e-6,10e-6 10e-6,10e-6 5.54926,5.40257 12.17113,9.90474 20.51445,14.78814 6.85971,3.99782 14.03541,7.62118 22.23734,11.56655 7.52566,3.66138 13.70417,8.37319 20.61988,13.27686 6.10394,4.25003 12.54804,8.79932 19.37074,10.91075 6.0325,1.96126 12.5547,2.83477 19.5619,3.43331 7.3685,0.61061 14.5976,0.76318 22.5509,1.07048 7.3499,0.27627 15.1455,0.65964 22.9743,1.80343 6.9319,0.98781 14.2171,2.71345 21.1181,6.08882 5.7046,2.82517 13.6573,7.0123 19.346,9.80488 8.2057,4.02587 16.6663,7.87941 25.3533,11.07118 5.643,2.06084 11.3883,3.90873 17.1789,5.19179 2.9882,0.66212 5.9702,1.16989 8.9493,1.48395 7.6553,0.7182 15.1697,0.41541 21.0989,-2.68445 3.758,-1.79888 7.4785,-2.58917 10.7628,-3.10152 4.0607,-0.69516 8.0805,-1.14386 11.8378,-1.64829 3.7681,-0.519 7.2991,-1.0222 10.5503,-1.94059 0,0 0,-1e-5 0,-1e-5 2.6481,-0.87481 4.8948,-1.54119 5.9325,-2.79408 12.7259,-12.61444 23.7223,-25.8668 33.0496,-39.36879 0,0 0,-2e-5 0,-2e-5 11.1981,-16.22621 19.6349,-32.27067 25.4433,-48.18166 7.12,-19.5299 9.7221,-37.41666 9.2433,-53.14615 -0.52,-17.85959 -5.1714,-32.44598 -8.6471,-41.48447 -3.6023,-9.36762 -6.3498,-14.13329 -5.7555,-14.49265 z"
       id="path4215"
       inkscape:path-effect="#path-effect4217"
       inkscape:original-d="m 1288.5668,-456.00091 c 44.4235,73.47072 -4.1197,154.2993 -49.9139,200.09346 -7.3759,7.37595 -30.4805,5.60775 -40.2814,10.50819 -27.287,13.64351 -77.0764,-15.33261 -96.325,-24.95695 -23.2227,-11.61132 -60.6499,-4.45434 -85.3791,-12.6974 -13.9566,-4.65219 -26.93459,-18.28355 -40.28139,-24.95695 -26.45352,-13.22676 -74.47145,-39.02469 -41.15708,-65.67619"
       inkscape:connector-curvature="0" />
    <path
       style="fill:#5d6c53;fill-rule:evenodd;stroke:none;stroke-width:1px;stroke-linecap:butt;stroke-linejoin:miter;stroke-opacity:1"
       d="m 1293.3831,-634.64014 c 2.0797,-1.22991 7.8001,11.00219 23.1599,25.00261 0,0 0,10e-6 0,10e-6 3.8894,3.56561 19.2072,16.85385 25.3746,22.77772 7.4637,7.10243 15.928,15.93922 21.6044,27.04835 1.1055,2.20877 2.1311,4.45152 3.099,6.72665 3.348,7.86905 6.0644,16.34115 8.5713,23.4911 3.9165,10.99512 7.6231,19.96828 13.1119,27.68725 0,0 0,1e-5 0,1e-5 6.1052,8.62704 10.7043,15.49066 14.6411,22.68012 0,0 0,0 0,0 7.9039,14.42487 9.2285,24.20181 8.2171,24.53894 -1.2385,0.41284 -4.7915,-8.4372 -13.6746,-21.16194 0,0 0,0 0,0 -4.7404,-6.78991 -9.2032,-12.37041 -16.0082,-20.9386 0,0 0,-1e-5 0,-1e-5 -6.6268,-8.43764 -11.2606,-18.23721 -15.4396,-29.47272 -2.7008,-7.1551 -5.5728,-15.76262 -8.6107,-22.91719 -0.899,-2.11722 -1.8353,-4.17368 -2.8327,-6.17087 -4.5771,-9.39626 -12.2971,-17.68293 -19.2367,-24.92833 -11.504,-11.90284 -14.4516,-13.8319 -23.9797,-24.19772 0,0 0,0 0,0 -15.0644,-16.41373 -18.3684,-29.94582 -17.9971,-30.16538 z"
       id="path4219"
       inkscape:path-effect="#path-effect4221"
       inkscape:original-d="m 1293.3831,-634.64014 c 5.341,9.0313 12.531,19.53649 20.5785,27.584 14.6849,14.68487 36.0882,31.45702 45.0977,49.47606 9.3961,18.79224 12.8113,40.87121 25.8326,58.23289 11.342,15.1227 20.7669,28.14901 26.2705,44.65981"
       inkscape:connector-curvature="0" />
    <path
       style="fill:#5d6c53;fill-rule:evenodd;stroke:none;stroke-width:1px;stroke-linecap:butt;stroke-linejoin:miter;stroke-opacity:1"
       d="m 1292.0696,-450.74681 c 0.6101,-0.29022 2.2105,2.02074 5.3551,5.83625 5.5484,6.73229 5.6132,6.2319 14.3642,15.88845 5.3531,5.79512 13.1789,14.50941 17.2392,25.50219 6.1565,17.06702 9.915,28.5514 16.9815,48.7287 0.6773,1.93214 1.3641,3.8783 2.0599,5.82733 3.6588,10.24788 7.2403,19.64223 11.2567,28.68811 5.2308,11.80218 11.1195,22.61545 16.5291,31.86377 14.8883,25.44929 26.0993,41.31075 24.3611,42.57491 -0.977,0.71058 -14.5566,-13.33544 -31.2611,-38.24589 -6.1227,-9.13147 -12.63,-19.98723 -18.3911,-32.1789 -4.3736,-9.26941 -8.2111,-18.96143 -11.9148,-29.33948 -0.7068,-1.98065 -1.3971,-3.9532 -2.0721,-5.91068 -5.899,-17.09301 -11.5069,-35.27713 -15.79,-49.26089 -2.5972,-8.95754 -9.4825,-17.77266 -14.1086,-24.01433 -6.0735,-8.0405 -9.4906,-12.65845 -12.2717,-18.16432 -2.3616,-4.67524 -2.8752,-7.53938 -2.3374,-7.79522 z"
       id="path4223"
       inkscape:path-effect="#path-effect4225"
       inkscape:original-d="m 1292.0696,-450.74681 c 8.001,16.82008 26.8242,30.55879 32.8381,48.60038 26.5782,79.73463 28.4188,91.83585 75.3087,156.30933"
       inkscape:connector-curvature="0" />
    <path
       style="fill:#5d6c53;fill-rule:evenodd;stroke:none;stroke-width:1px;stroke-linecap:butt;stroke-linejoin:miter;stroke-opacity:1"
       d="m 1401.092,-243.21006 c 1.7835,-1.09326 9.2679,15.82799 33.3509,35.98482 9.9443,8.33188 22.4727,16.69586 38.0729,23.91463 25.9785,12.05028 54.2887,18.58774 91.3193,24.53171 5.5517,0.93265 10.1979,2.76432 14.7949,4.05688 4.5049,1.11865 8.8349,2.1551 12.2215,1.09036 7.3455,-1.84541 14.4059,-5.23772 22.1547,-8.74254 6.9456,-3.20732 14.5867,-6.79129 23.1213,-8.58096 3.9892,-0.77714 7.8212,-0.86001 11.4028,-0.78756 4.1618,0.0568 8.1225,0.2936 12.0983,0.43757 0,0 0,0 0,0 3.8388,0.13051 7.5841,0.21752 11.1489,-0.0999 3.0336,-0.32484 5.808,-0.71584 7.8642,-1.8338 6.6581,-3.33735 13.2225,-7.00471 19.6597,-10.99885 19.6676,-12.20327 37.0599,-26.77803 51.8355,-42.80618 20.9866,-22.75957 36.4459,-48.06559 47.0846,-73.05211 20.6256,-48.43333 22.3937,-93.99198 20.0094,-124.69832 -2.4193,-31.15762 -8.628,-48.27936 -7.1951,-48.72024 0.3681,-0.11327 8.375,16.50389 12.3869,48.18902 3.9467,31.17112 3.5193,78.11214 -17.0447,128.62497 -10.6011,26.0358 -26.3413,52.45728 -48.0219,76.27047 -15.2727,16.77067 -33.3153,31.99006 -53.7826,44.68936 -6.698,4.15593 -13.5331,7.96546 -20.47,11.4256 -3.9311,1.87555 -7.9069,2.5929 -11.4877,2.82719 -4.2759,0.34537 -8.4222,0.25377 -12.3646,0.0878 0,0 0,0 0,0 -4.1333,-0.16498 -8.0144,-0.41738 -11.8745,-0.48556 -3.4058,-0.0364 -6.5374,-0.0378 -9.3272,0.54084 -6.9919,1.3158 -13.9894,4.62873 -21.0848,7.75129 -7.6606,3.44201 -15.3194,6.9571 -23.8346,9.07681 -6.2882,1.35339 -12.1723,0.21612 -17.0306,-1.33707 -5.216,-1.50745 -9.4835,-3.32051 -13.748,-4.02389 -37.1642,-6.42126 -66.4426,-13.97596 -92.8615,-27.14753 -15.9497,-7.96908 -28.6387,-17.18005 -38.4986,-26.27845 -23.8798,-22.05743 -29.6949,-40.0317 -29.8994,-39.90638 z"
       id="path4227"
       inkscape:path-effect="#path-effect4229"
       inkscape:original-d="m 1401.092,-243.21006 c 37.2306,60.73726 95.198,77.74786 162.0013,88.88176 8.7616,1.4603 19.663,7.5627 28.8975,5.2541 15.0747,-3.7686 31.2119,-14.2986 45.0977,-17.0758 11.9163,-2.3833 33.0928,2.7186 43.7841,-2.627 112.8892,-56.44466 165.1954,-187.63292 129.1632,-304.73756"
       inkscape:connector-curvature="0" />
    <path
       style="fill:#5d6c53;fill-rule:evenodd;stroke:none;stroke-width:1px;stroke-linecap:butt;stroke-linejoin:miter;stroke-opacity:1"
       d="m 1697.5106,-446.80624 c -1.9334,0.43623 15.529,29.26187 7.1445,81.43729 0,0 0,2e-5 0,2e-5 -3.7931,23.40978 -14.7302,50.58646 -36.6894,72.91115 -3.3387,3.31104 -7.4404,5.57867 -11.7547,6.84671 -4.2126,1.24365 -8.3403,1.76509 -12.2828,2.16493 -3.8934,0.42569 -7.6804,0.74512 -11.0855,1.52851 -3.2304,0.7696 -6.2833,1.87173 -8.5665,3.67305 -4.5124,3.3804 -9.4521,5.9089 -14.4734,7.93892 -5.8241,2.3856 -11.9951,4.18957 -18.3895,5.22799 -4.5887,0.76554 -9.4085,1.11078 -14.2988,0.7443 -1.6725,-0.12533 -3.3468,-0.33343 -5.0178,-0.63414 -6.1433,-1.07172 -12.1694,-3.80988 -16.9058,-8.43233 -4.2845,-4.34768 -9.6564,-7.9337 -15.1268,-11.42855 -5.8448,-3.70086 -11.4129,-6.8529 -17.3181,-10.82375 -18.3357,-12.40284 -33.2049,-28.74725 -45.4004,-43.10981 -14.3597,-16.85974 -27.4676,-34.74792 -37.4266,-48.61109 -8.1229,-11.40086 -12.3264,-25.4665 -15.0506,-34.38859 -2.2426,-7.26703 -3.5116,-11.53661 -5.4453,-16.74462 -3.6387,-9.76385 -6.9771,-14.49345 -6.5094,-14.86761 0.4537,-0.36294 4.9184,3.63824 9.7547,13.46545 2.4041,4.87072 4.3092,9.68723 6.9283,16.5123 3.3412,8.63156 8.2113,22.23805 15.8583,31.87107 10.3564,13.23193 24.1983,30.94549 38.5001,47.00837 12.3903,13.87533 26.9981,29.51165 44.1769,40.78565 5.5591,3.67189 11.0375,6.70528 17.1866,10.54522 5.6937,3.52423 11.6524,7.53329 16.9203,12.73797 2.8333,2.94728 7.1102,4.74141 11.6746,5.64831 1.2878,0.24603 2.602,0.41266 3.9377,0.50991 3.9043,0.2843 7.9523,-0.0272 11.9748,-0.64793 5.5875,-0.89043 11.0433,-2.47078 16.2404,-4.56348 4.5267,-1.84958 8.7375,-3.92711 12.3098,-6.61026 3.8865,-2.82592 8.2036,-4.46484 12.3805,-5.31944 4.2745,-0.90053 8.4205,-1.23568 12.2038,-1.58624 3.8648,-0.38962 7.4012,-0.74512 10.5616,-1.68274 3.0734,-0.91759 5.8714,-2.33111 7.8572,-4.34454 20.7116,-20.34641 31.6704,-45.62749 36.0638,-67.62502 0,0 0,-10e-6 0,-10e-6 4.6706,-23.23526 3.2742,-45.1295 2.0242,-58.25494 -1.332,-13.98598 -2.8021,-21.69127 -1.9567,-21.88203 z"
       id="path4231"
       inkscape:path-effect="#path-effect4233"
       inkscape:original-d="m 1697.5106,-446.80624 c 12.3793,54.86634 8.0028,110.2143 -32.8381,151.05523 -11.3777,11.37773 -30.7819,4.1498 -43.3463,13.57308 -13.6292,10.22191 -47.3845,20.48092 -62.6113,5.2541 -8.8723,-8.87227 -22.7651,-15.76052 -33.2759,-22.76775 -29.9246,-19.94972 -61.9278,-61.99175 -82.752,-89.75746 -14.6444,-19.52578 -16.6431,-47.51217 -29.7733,-63.92482"
       inkscape:connector-curvature="0" />
    <path
       style="fill:#5d6c53;fill-rule:evenodd;stroke:none;stroke-width:1px;stroke-linecap:butt;stroke-linejoin:miter;stroke-opacity:1"
       d="m 1695.3214,-450.30897 c -0.604,0.0869 -4.2314,-10.80024 -15.0497,-25.10895 -6.749,-8.81322 -10.4948,-12.38666 -19.592,-23.27452 0,0 -10e-5,0 -10e-5,0 -8.8573,-10.5908 -16.8516,-21.22567 -26.3899,-33.89677 -7.0391,-9.35107 -13.228,-17.5212 -19.8074,-25.66589 -7.7377,-9.5799 -14.8955,-17.43568 -21.8907,-24.2764 -16.1108,-15.77067 -28.3475,-23.76861 -27.3091,-25.40033 0.6088,-0.95675 14.4124,4.6545 32.4655,19.68053 7.7713,6.47492 15.7676,14.33369 24.0206,23.91508 6.893,8.00167 13.5238,16.45311 20.5109,25.7315 11.95,15.86889 14.8927,20.33274 25.5101,34.22436 0,0 0,10e-6 0,10e-6 7.5897,9.92405 12.8952,16.34496 18.2721,24.96356 10.5541,16.70941 10.9286,28.86779 9.2597,29.10782 z"
       id="path4235"
       inkscape:path-effect="#path-effect4237"
       inkscape:original-d="m 1695.3214,-450.30897 c -2.6796,-18.63093 -19.3707,-36.58229 -31.0868,-51.22743 -37.825,-47.28135 -52.1488,-76.61153 -98.9521,-106.39543"
       inkscape:connector-curvature="0" />
    <path
       style="fill:#5d6c53;fill-rule:evenodd;stroke:none;stroke-width:1px;stroke-linecap:butt;stroke-linejoin:miter;stroke-opacity:1"
       d="m 1809.1601,-475.70377 c -0.6955,0.54889 -6.4979,-5.17421 -15.3869,-16.20198 -9.5401,-11.83553 -20.1041,-26.55142 -33.9915,-47.46289 -10.7262,-16.14384 -30.2552,-46.71897 -44.3772,-67.11057 -0.1576,-0.22757 -0.3152,-0.45492 -0.4728,-0.68206 -17.0846,-24.60542 -32.7031,-44.4418 -49.501,-61.81056 -16.6769,-17.24403 -31.7231,-28.97276 -43.3363,-37.20044 -11.327,-8.02487 -18.3075,-12.04423 -17.844,-12.97124 0.3584,-0.71682 8.1388,1.75518 20.5388,8.70066 12.585,7.04913 29.0331,18.28992 46.7457,35.35136 17.7684,17.1145 34.411,37.43088 51.6121,62.22884 0.1597,0.23011 0.3194,0.46043 0.479,0.69098 15.9616,23.0578 31.8663,49.2633 43.4499,68.14411 14.807,24.12293 20.8483,33.7303 30.8,49.15614 7.6049,11.78806 12.0386,18.57225 11.2842,19.16765 z"
       id="path4239"
       inkscape:path-effect="#path-effect4241"
       inkscape:original-d="m 1809.1601,-475.70377 c -65.2069,-82.61778 -106.8119,-194.39081 -204.9097,-243.43974"
       inkscape:connector-curvature="0" />
    <path
       style="fill:#5d6c53;fill-rule:evenodd;stroke:none;stroke-width:1px;stroke-linecap:butt;stroke-linejoin:miter;stroke-opacity:1"
       d="m 1548.2067,-623.69411 c -1.1761,1.00546 -12.3486,-10.96875 -31.4062,-29.15574 -19.0999,-18.22737 -45.9626,-42.40461 -79.288,-64.43086 -0.1621,-0.10712 -0.3241,-0.21409 -0.4862,-0.3209 -22.4122,-14.77488 -43.5172,-25.73691 -63.5757,-33.86772 -19.9974,-8.10568 -36.837,-12.51656 -49.3131,-15.33451 -12.2482,-2.7665 -19.4482,-3.87106 -19.3705,-4.88062 0.063,-0.81962 7.415,-1.44443 20.1892,-0.0941 12.8975,1.36338 30.7167,4.73905 51.5753,12.24602 20.9198,7.52827 43.0792,18.46478 65.9997,33.5826 0.166,0.10949 0.332,0.21917 0.4979,0.32901 34.1518,22.60658 60.8157,48.11067 78.8301,67.8224 17.9982,19.69392 27.2629,33.32178 26.3475,34.10439 z"
       id="path4243"
       inkscape:path-effect="#path-effect4245"
       inkscape:original-d="M 1548.2067,-623.69411 C 1486.933,-695.36463 1401.4858,-764.24454 1304.767,-771.68446"
       inkscape:connector-curvature="0" />
    <path
       style="fill:#5d6c53;fill-rule:evenodd;stroke:none;stroke-width:1px;stroke-linecap:butt;stroke-linejoin:miter;stroke-opacity:1"
       d="m 1338.0429,-874.57715 c 0.2506,-0.81122 7.5935,0.42445 20.0678,4.10181 12.9298,3.81166 29.5532,9.70565 50.5106,18.6196 22.7841,9.68715 48.2432,21.96228 75.5567,37.27224 0.2186,0.12254 0.4371,0.24511 0.6553,0.36771 27.6054,15.50291 51.132,30.74154 71.2802,45.54929 18.2747,13.42213 31.2732,24.57608 40.8637,34.03816 9.145,9.02255 13.5485,14.90141 12.9651,15.48483 -0.6666,0.66657 -6.2351,-4.02187 -16.1859,-11.83032 -10.9894,-8.62353 -23.3449,-17.87952 -42.4958,-30.80316 -20.6891,-13.95127 -43.7641,-28.24872 -71.3231,-43.71934 -0.2161,-0.12132 -0.4324,-0.24264 -0.6489,-0.36396 -27.2056,-15.24826 -51.7993,-27.70173 -74.135,-38.26899 -21.1617,-10.00772 -35.6142,-16.21279 -48.6909,-21.72421 -11.8583,-4.99793 -18.6953,-7.83189 -18.4198,-8.72366 z"
       id="path4247"
       inkscape:path-effect="#path-effect4249"
       inkscape:original-d="m 1338.0429,-874.57715 c 82.5349,25.49878 211.7454,95.27958 271.8994,155.43364"
       inkscape:connector-curvature="0" />
    <path
       style="fill:#5d6c53;fill-rule:evenodd;stroke:none;stroke-width:1px;stroke-linecap:butt;stroke-linejoin:miter;stroke-opacity:1"
       d="m 1333.2266,-877.2042 c -0.1858,0.55092 -9.7016,-2.02221 -27.2404,-3.4248 -9.8845,-0.78227 -20.4064,-1.15537 -34.5073,-1.17528 -26.2439,-0.0346 -45.8234,0.95567 -81.2601,2.25549 -23.3789,0.8622 -52.0535,1.9786 -79.7159,0.84696 -10.5689,-0.42893 -21.6284,-1.20708 -32.7064,-3.03843 -8.0951,-1.30065 -16.7002,-3.23599 -24.8199,-7.22241 -2.2151,-1.10572 -4.5764,-2.1002 -7.0425,-3.1164 0,0 0,-10e-6 0,-10e-6 -3.4526,-1.41862 -6.9645,-2.76814 -10.5391,-4.10651 -5.4373,-2.03551 -10.9338,-4.00922 -16.5057,-5.9565 -4.249,-1.48492 -8.5009,-2.94018 -12.7302,-4.37206 -26.54679,-8.98666 -52.45128,-17.07772 -77.09321,-24.381 -13.82444,-4.097 -27.07132,-7.87826 -40.05172,-11.3909 -12.52112,-3.38787 -24.26616,-6.39902 -35.86893,-9.04462 -9.78683,-2.22732 -18.72633,-4.10711 -27.71695,-5.2896 -3.28224,-0.42832 -6.38886,-0.75829 -9.42563,-0.80032 -2.13878,0.0184 -3.92696,-0.017 -5.28864,0.46313 14.06692,-4.45695 -38.29841,11.89927 -23.20972,7.12742 -9.25468,2.92952 -17.03062,5.65644 -24.39154,8.78521 -9.11118,3.88166 -15.90642,7.61374 -21.65113,11.73076 0,0 0,0 0,0 -5.97376,4.29285 -9.67217,8.2254 -12.15355,11.24545 -2.41574,2.94016 -3.4621,4.69509 -3.80511,4.52359 -0.24512,-0.12256 0.22006,-2.1768 2.22184,-5.6196 2.01922,-3.47279 5.53902,-8.1593 11.44238,-13.10001 0,0 10e-6,-10e-6 10e-6,-10e-6 5.64492,-4.73741 12.60718,-9.17126 21.75168,-13.59932 7.39187,-3.58646 15.30182,-6.75912 24.53117,-10.06 8.94274,-3.20059 13.22361,-4.49207 22.97291,-7.90665 2.71956,-0.88041 5.30469,-1.04416 7.58146,-1.02466 3.48189,-0.0405 6.90248,0.21773 10.32996,0.58405 9.4024,0.99595 18.67645,2.71091 28.58703,4.76084 11.79734,2.43574 23.74951,5.27312 36.38581,8.49004 13.11045,3.33717 26.50717,6.98165 40.42631,10.95827 24.82424,7.09167 50.90284,15.0767 77.62287,24.08225 4.2552,1.43398 8.5402,2.8974 12.8322,4.39755 5.6275,1.96692 11.1946,3.97174 16.7148,6.04863 3.6285,1.36494 7.2376,2.7622 10.8279,4.24866 0,0 10e-5,10e-6 10e-5,10e-6 2.5279,1.04373 5.1056,2.14657 7.6868,3.43899 6.6014,3.37406 14.2902,5.05907 22.0134,6.43216 10.4588,1.80897 21.1344,2.63502 31.5099,3.16867 26.9806,1.37883 55.8002,0.69717 79.056,0.32542 33.9606,-0.54883 56.6508,-0.92619 81.6157,0.16394 14.0576,0.61261 25.028,1.59638 34.8387,3.06934 17.8498,2.66675 27.0374,6.70355 26.7747,7.48226 z"
       id="path4251"
       inkscape:path-effect="#path-effect4253"
       inkscape:original-d="m 1333.2266,-877.2042 c -59.3761,-20.02957 -229.5967,8.0161 -278.0292,-16.20013 -29.5696,-14.78482 -221.34793,-75.08337 -245.62891,-66.98971 -28.03951,9.3465 -70.74578,20.20954 -84.06552,46.84901"
       inkscape:connector-curvature="0" />
    <path
       style="fill:#5d6c53;fill-rule:evenodd;stroke:none;stroke-width:1px;stroke-linecap:butt;stroke-linejoin:miter;stroke-opacity:1"
       d="m 752.21129,-809.77665 c -0.0456,-0.0425 5.29191,-9.84768 21.18168,-21.49361 5.6736,-4.15794 13.0599,-8.60156 21.90565,-11.71147 6.52183,-2.28494 13.89219,-3.83505 21.88674,-4.2075 6.99591,-0.32114 14.25404,0.22452 21.79553,1.5386 14.78257,2.58317 28.22585,7.26092 44.12718,12.73346 0,0 2e-5,1e-5 2e-5,1e-5 14.54831,4.98011 30.95247,10.54078 47.35435,13.69707 26.94815,5.22849 52.17761,12.61845 81.00986,20.83996 2.1313,0.64079 4.5785,0.73853 7.1422,0.56304 0.8162,-0.0597 1.6474,-0.15652 2.4951,-0.28034 1.8737,-0.27364 3.825,-0.67864 5.8475,-1.09766 5.9355,-1.37096 12.69,-2.74345 20.0228,-1.45595 12.8734,2.5645 25.5448,4.55257 38.0516,9.54942 8.3018,3.44503 17.85,4.05804 27.0811,3.82695 10.8088,-0.32395 21.8776,-2.06483 32.2536,-3.70815 11.7743,-1.87968 22.3203,-3.69418 33.5465,-4.60136 10.9721,-0.92205 21.4424,-0.74403 31.4404,1.86559 0,0 0,10e-6 0,10e-6 24.6481,6.58183 56.9156,11.71888 69.5652,13.98373 16.7151,2.99274 25.9674,5.08962 25.8487,5.86119 -0.1087,0.70634 -9.5606,0.0193 -26.4322,-1.70668 -14.1878,-1.45138 -43.9499,-4.57904 -70.8041,-10.84865 0,0 0,0 0,0 -8.8454,-2.10097 -18.3446,-1.91257 -28.8583,-0.86535 -10.7544,1.10782 -20.9566,3.09152 -32.816,5.18229 -10.3842,1.84421 -21.7817,3.78562 -33.3897,4.3005 -9.9202,0.48551 -20.7547,-0.23145 -31.0596,-4.22895 -11.1379,-4.46101 -23.1908,-6.1916 -36.3814,-8.83992 -4.524,-1.08417 -9.91,0.2985 -16.0032,1.46732 -2.054,0.44168 -4.2161,0.88307 -6.4849,1.20743 -1.0261,0.1467 -2.0727,0.26928 -3.1409,0.35746 -3.4343,0.29509 -7.0601,0.0747 -10.6694,-0.9247 -29.02918,-8.3104 -53.64541,-15.73674 -80.11574,-21.1928 -17.23582,-3.57153 -33.87869,-9.49748 -48.38677,-14.81783 0,0 -2e-5,0 -2e-5,0 -15.91328,-5.80585 -28.6426,-10.66345 -42.63237,-13.51601 -7.07156,-1.44614 -13.77514,-2.19717 -20.21432,-2.13508 -7.33687,0.0649 -14.1668,1.18962 -20.2755,3.00701 -8.29114,2.45641 -15.51862,6.25403 -21.20823,9.83185 -16.05115,10.094 -22.5749,18.85233 -23.68306,17.81912 z"
       id="path4255"
       inkscape:path-effect="#path-effect4257"
       inkscape:original-d="m 752.21129,-809.77665 c 61.34215,-65.79241 109.08356,-18.46468 177.32571,-4.81625 27.66312,5.53262 54.16048,13.47286 80.5628,21.01638 11.801,3.37173 23.938,-4.5822 35.903,-2.18921 12.765,2.55301 24.811,4.23248 37.2165,9.19467 34.7523,13.90092 88.5521,-12.67035 125.2226,-3.50273 32.2652,8.06631 64.4964,11.3034 96.3251,16.20013"
       inkscape:connector-curvature="0" />
    <path
       style="fill:#5d6c53;fill-rule:evenodd;stroke:none;stroke-width:1px;stroke-linecap:butt;stroke-linejoin:miter;stroke-opacity:1"
       d="m 750.45992,-804.52255 c 0.21658,0.0113 0.28661,0.71809 0.67039,1.959 0.44012,1.42306 1.07505,2.84025 2.53485,5.22366 1.3993,2.22123 3.39418,4.7937 6.25741,7.33091 2.05184,1.79572 4.67178,3.73289 7.62019,4.67511 2.09696,0.63511 4.64628,0.85681 6.40499,-0.23485 4.12402,-2.18228 8.89847,-3.456 14.1143,-3.88117 4.84289,-0.4058 9.63736,-0.19482 14.82597,0.19785 4.48774,0.33083 9.72747,0.84755 14.42409,0.9454 4.28787,0.0748 8.75786,-0.10371 12.85913,-1.23251 7.90298,-2.10836 16.86148,-4.48812 25.76378,-6.57635 9.96214,-2.33774 20.76331,-4.56953 31.9616,-6.16901 10.24005,-1.46999 21.30707,-2.50785 32.6367,-2.05765 9.05688,0.30634 18.97237,1.67944 28.17698,6.13281 4.79693,2.36598 9.81428,4.45404 15.03928,6.47596 6.29698,2.43376 12.75353,4.67565 19.39204,6.80829 14.7995,4.7529 30.21368,8.88396 46.18408,12.26576 8.3427,1.76261 16.8316,3.34043 25.3918,4.55524 7.2128,1.02359 14.3656,1.77383 21.4782,2.17969 6.8629,0.38997 13.5865,0.46271 20.1702,-0.0616 5.6178,-0.46204 10.9991,-1.26226 15.9487,-2.91581 37.8788,-12.5034 75.0742,-16.18206 108.3174,-14.13182 37.5987,2.34688 74.6155,11.96912 97.5136,18.2567 0,0 10e-5,1e-5 10e-5,1e-5 7.7721,2.14785 24.732,4.95533 29.5564,5.98634 5.5289,1.17493 9.6972,2.35781 13.44,3.88688 7.4943,3.03685 9.9848,6.58946 9.7389,6.86269 -0.2973,0.33034 -3.4456,-2.26837 -10.6162,-4.33634 -3.7675,-1.07457 -7.6759,-1.80354 -13.2375,-2.5779 -5.7608,-0.79469 -20.7237,-2.22614 -30.2441,-4.37168 0,0 0,0 0,0 -22.7868,-5.14082 -60.3622,-13.66154 -96.5976,-15.18743 -32.2784,-1.38326 -68.2275,2.63229 -104.7638,14.93389 -6.0011,1.99668 -12.16,2.98752 -18.2554,3.47455 -7.1737,0.5904 -14.356,0.54556 -21.5332,0.14275 -7.4301,-0.41529 -14.8644,-1.18553 -22.3185,-2.23988 -8.8479,-1.25151 -17.5593,-2.88016 -26.0661,-4.70741 -16.3078,-3.4952 -32.03583,-7.79375 -47.11718,-12.75932 -6.76864,-2.22792 -13.38701,-4.59012 -19.86968,-7.16591 -5.36136,-2.12786 -10.61991,-4.38793 -15.74642,-6.98366 -7.24678,-3.7721 -15.95672,-4.97627 -24.41372,-5.50868 -10.51955,-0.59618 -21.10215,0.23082 -31.08767,1.44929 -10.88713,1.33624 -21.52541,3.29195 -31.4003,5.34579 -8.75845,1.82218 -17.82342,3.95846 -25.73942,5.80568 -5.14244,1.18196 -10.22704,1.25367 -14.82553,0.971 -5.06626,-0.29537 -10.33353,-1.01748 -14.72551,-1.52728 -5.09074,-0.58028 -9.52744,-0.99663 -13.92837,-0.82672 -4.68634,0.19173 -8.83324,1.01163 -12.3845,2.66668 -3.51721,1.54573 -7.14102,1.09858 -9.88971,-0.0717 -3.64531,-1.5141 -6.46027,-3.93123 -8.50745,-6.11403 -2.88451,-3.04045 -4.74929,-6.08766 -5.9186,-8.65345 -1.21476,-2.59072 -1.64145,-4.58938 -1.67853,-6.10631 -0.0354,-1.44691 0.27892,-2.14208 0.44391,-2.13347 z"
       id="path4259"
       inkscape:path-effect="#path-effect4261"
       inkscape:original-d="m 750.45992,-804.52255 c -0.45982,8.81497 14.44128,26.0553 24.51911,21.01638 16.50062,-8.25031 38.48898,1.76163 56.04368,-2.62705 27.82793,-6.95698 86.79556,-22.27841 115.5901,-7.88114 34.21355,17.10677 127.83289,42.91402 167.25539,29.7732 76.8598,-25.61994 139.383,-13.86407 203.5962,2.18921 19.279,4.81975 42.6496,4.32064 53.4166,14.01092"
       inkscape:connector-curvature="0" />
    <path
       style="fill:#5d6c53;fill-rule:evenodd;stroke:none;stroke-width:1px;stroke-linecap:butt;stroke-linejoin:miter;stroke-opacity:1"
       d="m 1076.2138,-727.90033 c 0.1739,-0.71371 8.269,0.1934 22.1836,-0.34532 8.3653,-0.33858 16.8381,-1.01751 28.5183,-2.27038 23.7817,-2.55489 37.1565,-4.71928 67.7118,-8.74519 10.1162,-1.33396 20.8716,-2.69721 31.7121,-3.86461 0.8924,-0.0961 1.7832,-0.19065 2.6726,-0.2836 10.8375,-1.13368 21.2152,-2.0142 31.5329,-2.43075 9.1069,-0.37469 17.7712,-0.39369 26.38,0.47488 3.5892,0.36047 7.1322,0.89744 10.6303,1.74799 2.935,0.70083 5.8711,1.67938 8.6892,3.12906 20.6639,10.8318 34.5694,17.06608 47.757,22.27488 11.8228,4.66971 18.853,6.86391 18.6308,7.82669 -0.1856,0.80433 -7.6286,0.26969 -20.1904,-3.0938 -13.3467,-3.57364 -29.2686,-9.45228 -50.0284,-19.34559 -2.0037,-0.96116 -4.3007,-1.59791 -6.8286,-2.14149 -2.9988,-0.62941 -6.1412,-0.99457 -9.466,-1.24287 -8.0127,-0.59481 -16.1959,-0.37994 -25.1091,0.10566 -10.0648,0.55662 -20.1895,1.50334 -30.953,2.63908 -0.8804,0.093 -1.7626,0.1871 -2.6467,0.28229 -10.6262,1.14405 -21.5631,2.44943 -31.5731,3.62523 -27.3866,3.2195 -47.3806,5.48665 -68.3394,6.51131 -11.6231,0.57 -20.8663,0.57749 -29.1719,0.0241 -14.4943,-0.94524 -22.3727,-3.80723 -22.112,-4.87757 z"
       id="path4275"
       inkscape:path-effect="#path-effect4277"
       inkscape:original-d="m 1076.2138,-727.90033 c 47.9629,11.68443 193.3814,-26.1238 228.1153,-8.75683 21.4704,10.73518 46.4732,21.23277 68.3033,26.27048"
       inkscape:connector-curvature="0" />
    <path
       style="fill:#5d6c53;fill-rule:evenodd;stroke:none;stroke-width:1px;stroke-linecap:butt;stroke-linejoin:miter;stroke-opacity:1"
       d="m 723.7516,-913.98287 c 0.56906,0.98403 -7.4715,6.16493 -16.04903,19.22369 -4.54181,6.94952 -8.77048,15.29807 -12.62973,25.99098 -3.33435,9.26661 -6.06497,19.56614 -7.93346,30.99581 -1.68447,10.33402 -2.61062,21.33392 -2.36506,32.71861 0,0 0.001,0.0522 0.001,0.0522 0.2473,10.9759 1.52592,21.32102 4.00111,30.98489 2.57074,9.9808 6.20251,18.69607 11.03642,26.05377 5.49562,8.37921 12.18544,14.41154 18.8498,18.37009 0,0 10e-6,0 10e-6,0 16.49898,9.9101 28.7322,7.36256 28.7322,10.01148 0,-0.2619 -12.28417,5.22049 -31.87864,-4.10592 0,-10e-6 0,-10e-6 0,-10e-6 -7.91693,-3.81077 -16.08447,-10.14204 -22.77426,-19.38651 -5.82362,-8.05608 -10.28304,-17.6381 -13.27998,-28.44855 -2.9124,-10.45463 -4.43989,-21.60052 -4.68439,-33.26204 0,-10e-6 -0.001,-0.0555 -0.001,-0.0555 -0.25711,-12.10757 0.86087,-23.74387 2.89658,-34.59481 2.24341,-11.98693 5.56247,-22.7939 9.59853,-32.38298 4.62767,-11.02197 9.93175,-19.71719 15.49352,-26.55974 10.812,-13.36156 20.52669,-16.40035 20.98636,-15.60548 z"
       id="path4287"
       inkscape:path-effect="#path-effect4289"
       inkscape:original-d="m 723.7516,-913.98287 c -54.57568,31.56078 -70.57516,194.40152 23.64343,194.40152"
       inkscape:connector-curvature="0" />
    <path
       style="fill:#5d6c53;fill-rule:evenodd;stroke:none;stroke-width:1px;stroke-linecap:butt;stroke-linejoin:miter;stroke-opacity:1"
       d="m 1373.508,-710.38668 c 0.5762,-0.36648 2.2951,1.90948 6.5484,4.4288 1.9794,1.17306 3.978,2.10521 6.9247,3.39283 3.5906,1.52841 9.8384,3.92679 14.6623,8.26496 15.6545,14.31228 40.9051,36.44456 71.7323,51.69898 2.5301,1.26702 5.3455,2.29205 8.3861,3.4139 0.2799,0.10239 0.5606,0.20464 0.842,0.30687 3.3323,1.21042 6.5753,2.34578 9.9398,3.62103 3.6263,1.36929 7.2422,2.84128 10.8028,4.65221 2.9821,1.464 6.0988,3.35314 8.8928,6.10182 3.0636,3.12018 4.9047,5.49962 7.4648,7.99793 1.3591,1.31979 2.6515,2.48983 3.9832,3.40561 0,0 0,0 0,0 1.2282,0.78993 2.236,1.41991 3.0874,1.55662 15.3777,3.34394 29.3121,8.45337 40.0254,12.91807 0,0 0,0 0,0 21.8907,9.11072 34.0596,17.17964 33.5098,18.27922 -0.66,1.32003 -13.8857,-4.47596 -35.9484,-11.72707 0,0 0,0 0,0 -10.7559,-3.52958 -24.7329,-7.82884 -39.3824,-10.49226 -2.5781,-0.5491 -4.7443,-1.59204 -6.4853,-2.79424 0,0 0,-10e-6 0,-10e-6 -1.9889,-1.31222 -3.7431,-2.78086 -5.3416,-4.28583 -3.1351,-2.94181 -5.0985,-5.34822 -7.7893,-7.9816 -1.538,-1.58349 -3.8213,-2.80452 -6.452,-4.16558 -3.0726,-1.52773 -6.3698,-2.82204 -9.8749,-4.13342 -3.2538,-1.21249 -6.4022,-2.30212 -9.8465,-3.55343 -0.2884,-0.10478 -0.5769,-0.20998 -0.8654,-0.3157 -3.0637,-1.113 -6.2275,-2.30011 -9.4065,-3.88766 -32.5098,-16.41554 -57.2061,-39.9823 -71.8795,-56.00998 -3.0323,-3.49977 -8.8479,-6.52426 -12.2598,-8.6383 -2.7804,-1.68837 -4.9319,-3.19709 -6.7786,-4.87115 -4.251,-3.84805 -4.8562,-6.95071 -4.4916,-7.18262 z"
       id="path4291"
       inkscape:path-effect="#path-effect4293"
       inkscape:original-d="m 1373.508,-710.38668 c 6.0015,9.43553 18.3786,10.93523 25.8327,18.38933 21.0064,21.00643 44.9381,40.42055 71.8059,53.85448 9.6243,4.81214 30.206,9.62737 37.6544,17.07581 3.8883,3.88827 10.7586,12.74747 17.0758,14.01092 25.7128,5.14256 55.3533,17.16844 74.433,26.70831"
       inkscape:connector-curvature="0" />
  </g>
</svg>
